<?xml version="1.0" encoding="UTF-8"?>
<svg width="17px" height="18px" viewBox="0 0 17 18" version="1.1" xmlns="http://www.w3.org/2000/svg" xmlns:xlink="http://www.w3.org/1999/xlink">
    <!-- Generator: Sketch 47.1 (45422) - http://www.bohemiancoding.com/sketch -->
    <title>person - material</title>
    <desc>Created with Sketch.</desc>
    <defs></defs>
    <g id="Page-1" stroke="none" stroke-width="1" fill="none" fill-rule="evenodd">
        <g id="home" transform="translate(-327.000000, -42.000000)" fill="#FFFFFF">
            <path d="M335.5,53.1377246 C336.551901,53.1377246 337.705583,53.2904176 338.961078,53.5958084 C340.386235,53.9520976 341.539916,54.4271427 342.422156,55.0209581 C343.474057,55.7165703 344,56.4970017 344,57.3622754 L344,59.5 L327,59.5 L327,57.3622754 C327,56.4970017 327.525943,55.7165703 328.577844,55.0209581 C329.460084,54.4271427 330.613765,53.9520976 332.038922,53.5958084 C333.294417,53.2904176 334.448099,53.1377246 335.5,53.1377246 Z M335.5,51 C334.736523,51 334.032438,50.8091336 333.387725,50.4273952 C332.743011,50.0456568 332.229792,49.5324384 331.848054,48.8877246 C331.466315,48.2430107 331.275449,47.538926 331.275449,46.7754491 C331.275449,46.0119722 331.466315,45.2994045 331.848054,44.6377246 C332.229792,43.9760446 332.743011,43.4543432 333.387725,43.0726048 C334.032438,42.6908664 334.736523,42.5 335.5,42.5 C336.263477,42.5 336.967562,42.6908664 337.612275,43.0726048 C338.256989,43.4543432 338.770208,43.9760446 339.151946,44.6377246 C339.533685,45.2994045 339.724551,46.0119722 339.724551,46.7754491 C339.724551,47.538926 339.533685,48.2430107 339.151946,48.8877246 C338.770208,49.5324384 338.256989,50.0456568 337.612275,50.4273952 C336.967562,50.8091336 336.263477,51 335.5,51 Z" id="person---material"></path>
        </g>
    </g>
</svg>