<?xml version="1.0" encoding="UTF-8"?>
<svg width="76px" height="100px" viewBox="0 0 76 100" version="1.1" xmlns="http://www.w3.org/2000/svg" xmlns:xlink="http://www.w3.org/1999/xlink">
    <!-- Generator: Sketch 47.1 (45422) - http://www.bohemiancoding.com/sketch -->
    <title>soup</title>
    <desc>Created with Sketch.</desc>
    <defs></defs>
    <g id="Page-1" stroke="none" stroke-width="1" fill="none" fill-rule="evenodd">
        <g id="home-3" transform="translate(-135.000000, -198.000000)" fill-rule="nonzero">
            <g id="Group-2" transform="translate(32.000000, 125.000000)">
                <g id="soup" transform="translate(103.000000, 73.000000)">
                    <g id="Group" transform="translate(4.421818, 62.942779)" fill="#28C1F9">
                        <path d="M3.93541818,1.93351499 C4.29413818,9.83542234 6.73387636,16.8092643 10.88928,22.0010899 C13.4163491,24.0678474 16.3201018,25.6392371 19.5864436,27.0016349 L47.5619055,27.0016349 C58.20688,22.6419619 65.1389091,14.1950954 66.8852509,1.93351499 L3.93541818,1.93351499 Z M19.2940509,20.8321526 C18.9013382,21.4588556 18.2214836,21.8038147 17.5250473,21.8038147 C17.1522327,21.8038147 16.7752727,21.7049046 16.4347927,21.4975477 C10.6084945,17.946049 6.59431273,12.2623978 4.82586182,5.06076294 C4.55585455,3.96103542 5.24123636,2.85422343 6.35608727,2.58828338 C7.47176727,2.32207084 8.59435636,2.99782016 8.86436364,4.09700272 C10.3699927,10.2286104 13.7432873,15.0408719 18.6197236,18.0128065 C19.5952873,18.6079019 19.8973527,19.8700272 19.2940509,20.8321526 Z" id="Shape"></path>
                    </g>
                    <rect id="Rectangle-path" fill="#28C1F9" x="30.1333091" y="93.2141689" width="19.8981818" height="2.9972752"></rect>
                    <path d="M27.2016436,39.647139 C27.2016436,43.4051771 29.0972218,45.3632153 30.6202618,46.9362398 C31.9376873,48.2970027 32.8892073,49.280109 32.8892073,51.3970027 C32.8892073,52.5283379 33.8194473,53.4452316 34.9666327,53.4452316 C36.1140945,53.4452316 37.0440582,52.5283379 37.0440582,51.3970027 C37.0440582,47.6386921 35.14848,45.680654 33.6257164,44.1076294 C32.3082909,42.7468665 31.3564945,41.7637602 31.3564945,39.647139 C31.3564945,37.5299728 32.3082909,36.5468665 33.6259927,35.1861035 C35.1490327,33.6128065 37.0440582,31.6547684 37.0440582,27.8967302 C37.0440582,24.1386921 35.14848,22.180654 33.62544,20.6076294 C32.3082909,19.2468665 31.3564945,18.2640327 31.3564945,16.1474114 C31.3564945,14.0305177 32.3082909,13.0476839 33.6257164,11.686921 C35.1490327,10.113624 37.0440582,8.15613079 37.0440582,4.39836512 C37.0440582,3.26702997 36.1140945,2.35013624 34.9666327,2.35013624 C33.8194473,2.35013624 32.8892073,3.26702997 32.8892073,4.39836512 C32.8892073,6.51498638 31.9376873,7.49782016 30.6202618,8.85831063 C29.0972218,10.4316076 27.2016436,12.3893733 27.2016436,16.1474114 C27.2016436,19.9051771 29.0972218,21.8629428 30.6202618,23.4362398 C31.9376873,24.7970027 32.8892073,25.780109 32.8892073,27.8967302 C32.8892073,30.0138965 31.9376873,30.9967302 30.6202618,32.3574932 C29.0972218,33.9307902 27.2016436,35.8888283 27.2016436,39.647139 Z" id="Shape" fill="#3F2D20"></path>
                    <path d="M37.8391564,37.2972752 C37.8391564,41.0553134 39.7341818,43.0133515 41.2572218,44.5866485 C42.5749236,45.9474114 43.52672,46.9307902 43.52672,49.0476839 C43.52672,50.1790191 44.4566836,51.0959128 45.6041455,51.0959128 C46.7513309,51.0959128 47.6815709,50.1790191 47.6815709,49.0476839 C47.6815709,45.2893733 45.7857164,43.3313351 44.2629527,41.7580381 C42.9455273,40.3972752 41.9940073,39.4144414 41.9940073,37.2972752 C41.9940073,35.180654 42.9455273,34.1975477 44.2629527,32.8370572 C45.7859927,31.2637602 47.6815709,29.3057221 47.6815709,25.5474114 C47.6815709,21.7891008 45.7857164,19.8313351 44.2629527,18.2580381 C42.9455273,16.8972752 41.9940073,15.9144414 41.9940073,13.7978202 C41.9940073,11.6809264 42.9455273,10.6980926 44.2629527,9.3373297 C45.7859927,7.7640327 47.6815709,5.80653951 47.6815709,2.04877384 C47.6815709,0.917438692 46.7513309,0.000544959128 45.6041455,0.000544959128 C44.4566836,0.000544959128 43.52672,0.917438692 43.52672,2.04877384 C43.52672,4.1653951 42.5749236,5.14850136 41.2577745,6.50871935 C39.7344582,8.08201635 37.8391564,10.039782 37.8391564,13.7978202 C37.8391564,17.5555858 39.7341818,19.513624 41.2572218,21.086921 C42.5749236,22.4476839 43.52672,23.4305177 43.52672,25.5476839 C43.52672,27.6648501 42.5746473,28.6482289 41.2572218,30.0087193 C39.7344582,31.5817439 37.8391564,33.5395095 37.8391564,37.2972752 Z" id="Shape" fill="#3F2D20"></path>
                    <path d="M23.0412655,80.9555858 C18.1648291,77.9833787 14.7915345,73.1713896 13.2859055,67.039782 C13.0158982,65.9405995 11.8933091,65.2648501 10.7779055,65.5310627 C9.66305455,65.7972752 8.97767273,66.9040872 9.24768,68.0035422 C11.0158545,75.2051771 15.0303127,80.8888283 20.8566109,84.440327 C21.1970909,84.6474114 21.5743273,84.746594 21.9471418,84.746594 C22.6433018,84.746594 23.3234327,84.4019074 23.7161455,83.7749319 C24.3191709,82.8128065 24.0171055,81.5506812 23.0412655,80.9555858 Z" id="Shape" fill="#3F2D20"></path>
                    <path d="M73.83552,56.5910082 L2.15618909,56.5910082 C1.00872727,56.5910082 0.0787636364,57.5079019 0.0787636364,58.6392371 C0.0787636364,66.713624 2.07770182,74.1555858 5.85973818,80.1607629 C9.61717818,86.127248 15.0900073,90.5694823 21.7406982,93.0741144 L21.7406982,97.9438692 C21.7406982,99.0752044 22.6709382,99.9920981 23.8181236,99.9920981 L52.1738618,99.9920981 C53.3210473,99.9920981 54.2512873,99.0752044 54.2512873,97.9438692 L54.2512873,93.0735695 C60.9019782,90.5692098 66.3742545,86.127248 70.1319709,80.1604905 C73.9142836,74.1553134 75.9132218,66.7133515 75.9132218,58.6389646 C75.9129455,57.5079019 74.9827055,56.5910082 73.83552,56.5910082 Z M25.8955491,95.8953678 L25.8955491,93.6283379 L50.09616,93.6283379 L50.09616,95.8953678 L25.8955491,95.8953678 Z M24.0079855,89.5318801 C12.1845964,85.453406 4.91954909,74.7749319 4.27976727,60.6874659 L71.7119418,60.6874659 C71.07216,74.7749319 63.8071127,85.453406 51.9837236,89.5318801 L24.0079855,89.5318801 Z" id="Shape" fill="#3F2D20"></path>
                </g>
            </g>
        </g>
    </g>
</svg>