<?xml version="1.0" encoding="UTF-8"?>
<svg width="799px" height="237px" viewBox="0 0 799 237" version="1.1" xmlns="http://www.w3.org/2000/svg" xmlns:xlink="http://www.w3.org/1999/xlink">
    <!-- Generator: Sketch 47.1 (45422) - http://www.bohemiancoding.com/sketch -->
    <title>Group 2</title>
    <desc>Created with Sketch.</desc>
    <defs>
        <path d="M86.7384798,89.4109633 C82.9780198,93.9518962 78.5435815,97.4107581 73.435032,99.7876526 C68.3264825,102.164547 62.614926,103.352977 56.3001912,103.352977 C50.6240251,103.352977 45.3559124,102.324187 40.4956952,100.266577 C35.6354779,98.2089665 31.4316305,95.4064016 27.8840266,91.8587977 C24.3364228,88.3111939 21.5338578,84.1073464 19.4762476,79.2471292 C17.4186374,74.386912 16.3898477,69.1542748 16.3898477,63.5490608 C16.3898477,57.9438467 17.4186374,52.7112096 19.4762476,47.8509923 C21.5338578,42.9907751 24.3364228,38.7869276 27.8840266,35.2393238 C31.4316305,31.69172 35.6354779,28.889155 40.4956952,26.8315448 C45.3559124,24.7739345 50.6240251,23.7451449 56.3001912,23.7451449 C62.4020698,23.7451449 67.776609,24.80941 72.42397,26.9379723 C77.071331,29.0665346 81.2042275,32.1529037 84.8227834,36.197172 L74.712163,45.9885096 C72.4416966,43.3632828 69.8342469,41.2702279 66.8897357,39.7092822 C63.9452245,38.1483366 60.4508872,37.3678754 56.4066188,37.3678754 C52.859015,37.3678754 49.5243174,37.9886968 46.402426,39.2303581 C43.2805347,40.4720195 40.5666584,42.228057 38.260716,44.4985235 C35.9547735,46.7689899 34.1277849,49.5183416 32.7796955,52.7466611 C31.431606,55.9749806 30.7575714,59.5757445 30.7575714,63.5490608 C30.7575714,67.522377 31.431606,71.1231409 32.7796955,74.3514604 C34.1277849,77.5797799 35.9547735,80.3291316 38.260716,82.599598 C40.5666584,84.8700645 43.2805347,86.6261021 46.402426,87.8677634 C49.5243174,89.1094247 52.859015,89.7302461 56.4066188,89.7302461 C60.6637434,89.7302461 64.4418848,88.8610962 67.7411563,87.1227703 C71.0404279,85.3844444 73.9671572,82.9188968 76.5214319,79.7260533 L86.7384798,89.4109633 Z M121.221017,47.7977785 C125.265285,47.7977785 128.972475,48.4895509 132.342699,49.8731164 C135.712923,51.2566819 138.621914,53.1723592 141.069761,55.6202059 C143.517607,58.0680525 145.433285,60.9947817 146.81685,64.4004814 C148.200416,67.8061811 148.892188,71.5311092 148.892188,75.5753776 C148.892188,79.619646 148.200416,83.3445741 146.81685,86.7502738 C145.433285,90.1559734 143.517607,93.0827027 141.069761,95.5305493 C138.621914,97.978396 135.712923,99.8940733 132.342699,101.277639 C128.972475,102.661204 125.265285,103.352977 121.221017,103.352977 C117.176748,103.352977 113.469558,102.661204 110.099334,101.277639 C106.729111,99.8940733 103.820119,97.978396 101.372272,95.5305493 C98.9244258,93.0827027 97.0087485,90.1559734 95.625183,86.7502738 C94.2416175,83.3445741 93.5498451,79.619646 93.5498451,75.5753776 C93.5498451,71.5311092 94.2416175,67.8061811 95.625183,64.4004814 C97.0087485,60.9947817 98.9244258,58.0680525 101.372272,55.6202059 C103.820119,53.1723592 106.729111,51.2566819 110.099334,49.8731164 C113.469558,48.4895509 117.176748,47.7977785 121.221017,47.7977785 Z M121.221017,90.4752392 C122.994819,90.4752392 124.715381,90.1382219 126.382754,89.4641771 C128.050128,88.7901324 129.522362,87.814556 130.799499,86.5374186 C132.076636,85.2602812 133.087688,83.699359 133.832685,81.854605 C134.577682,80.009851 134.950175,77.9167961 134.950175,75.5753776 C134.950175,73.2339591 134.577682,71.1409042 133.832685,69.2961502 C133.087688,67.4513962 132.076636,65.890474 130.799499,64.6133366 C129.522362,63.3361992 128.050128,62.3606228 126.382754,61.6865781 C124.715381,61.0125333 122.994819,60.675516 121.221017,60.675516 C119.376263,60.675516 117.637963,61.0125333 116.006065,61.6865781 C114.374167,62.3606228 112.919672,63.3361992 111.642534,64.6133366 C110.365397,65.890474 109.354345,67.4513962 108.609348,69.2961502 C107.864351,71.1409042 107.491858,73.2339591 107.491858,75.5753776 C107.491858,77.9167961 107.864351,80.009851 108.609348,81.854605 C109.354345,83.699359 110.365397,85.2602812 111.642534,86.5374186 C112.919672,87.814556 114.374167,88.7901324 116.006065,89.4641771 C117.637963,90.1382219 119.376263,90.4752392 121.221017,90.4752392 Z M196.678173,95.370908 L195.826752,95.370908 C194.549615,97.5704223 192.562986,99.4506242 189.866807,101.01157 C187.170629,102.572516 183.835931,103.352977 179.862615,103.352977 C176.527867,103.352977 173.352809,102.661204 170.337346,101.277639 C167.321883,99.8940733 164.66122,97.978396 162.355277,95.5305493 C160.049335,93.0827027 158.222346,90.1559734 156.874257,86.7502738 C155.526167,83.3445741 154.852133,79.619646 154.852133,75.5753776 C154.852133,71.5311092 155.526167,67.8061811 156.874257,64.4004814 C158.222346,60.9947817 160.049335,58.0680525 162.355277,55.6202059 C164.66122,53.1723592 167.321883,51.2566819 170.337346,49.8731164 C173.352809,48.4895509 176.527867,47.7977785 179.862615,47.7977785 C183.835931,47.7977785 187.170629,48.5782397 189.866807,50.1391853 C192.562986,51.700131 194.549615,53.5803329 195.826752,55.7798472 L196.678173,55.7798472 L195.826752,48.3299164 L195.826752,25.4479862 L209.768765,25.4479862 L209.768765,101.650135 L196.678173,101.650135 L196.678173,95.370908 Z M182.736159,90.4752392 C184.580913,90.4752392 186.336951,90.1382219 188.004325,89.4641771 C189.671699,88.7901324 191.143932,87.814556 192.421069,86.5374186 C193.698207,85.2602812 194.726996,83.699359 195.507469,81.854605 C196.287942,80.009851 196.678173,77.9167961 196.678173,75.5753776 C196.678173,73.2339591 196.287942,71.1409042 195.507469,69.2961502 C194.726996,67.4513962 193.698207,65.890474 192.421069,64.6133366 C191.143932,63.3361992 189.671699,62.3606228 188.004325,61.6865781 C186.336951,61.0125333 184.580913,60.675516 182.736159,60.675516 C180.891405,60.675516 179.135368,61.0302711 177.467994,61.7397919 C175.80062,62.4493126 174.328387,63.4426268 173.051249,64.7197642 C171.774112,65.9969015 170.745322,67.5578238 169.964849,69.4025778 C169.184377,71.2473318 168.794146,73.3049111 168.794146,75.5753776 C168.794146,77.845844 169.184377,79.9034234 169.964849,81.7481774 C170.745322,83.5929314 171.774112,85.1538536 173.051249,86.430991 C174.328387,87.7081284 175.80062,88.7014426 177.467994,89.4109633 C179.135368,90.1204841 180.891405,90.4752392 182.736159,90.4752392 Z M271.071053,89.0916806 C268.658682,93.3488052 265.412674,96.7899293 261.332929,99.4151561 C257.253185,102.040383 252.268876,103.352977 246.379854,103.352977 C242.406538,103.352977 238.734823,102.661204 235.364599,101.277639 C231.994375,99.8940733 229.067646,97.9606582 226.584323,95.4773355 C224.101001,92.9940129 222.167586,90.0672836 220.78402,86.69706 C219.400455,83.3268363 218.708682,79.619646 218.708682,75.5753776 C218.708682,71.8149175 219.382717,68.2496292 220.730806,64.8794055 C222.078896,61.5091819 223.959098,58.5647149 226.371468,56.0459162 C228.783839,53.5271175 231.639617,51.5227514 234.938889,50.0327578 C238.23816,48.5427642 241.8744,47.7977785 245.847716,47.7977785 C250.033888,47.7977785 253.758817,48.4895509 257.022612,49.8731164 C260.286408,51.2566819 263.018022,53.1723592 265.217536,55.6202059 C267.41705,58.0680525 269.084399,60.9593062 270.219632,64.2940538 C271.354866,67.6288014 271.922474,71.2473031 271.922474,75.1496673 L271.922474,76.4267983 C271.851522,76.8525107 271.816046,77.2427413 271.816046,77.5975017 C271.745094,77.952262 271.709618,78.3424926 271.709618,78.7682051 L232.43784,78.7682051 C232.721649,80.8967674 233.306995,82.7237559 234.193896,84.2492256 C235.080797,85.7746952 236.180537,87.0518134 237.493151,88.0806186 C238.805764,89.1094237 240.242522,89.8544093 241.803468,90.3155978 C243.364413,90.7767863 244.960811,91.0073771 246.592709,91.0073771 C249.785552,91.0073771 252.428478,90.2801292 254.521564,88.8256116 C256.61465,87.3710941 258.264261,85.5441055 259.470446,83.3445911 L271.071053,89.0916806 Z M258.406171,68.8704399 C258.335219,67.9480629 258.033677,66.9192732 257.501536,65.78404 C256.969396,64.6488068 256.188934,63.5845416 255.160129,62.5912125 C254.131324,61.5978834 252.854206,60.7819468 251.328736,60.1433781 C249.803267,59.5048094 247.976278,59.1855299 245.847716,59.1855299 C242.867729,59.1855299 240.242541,60.036942 237.972075,61.7397919 C235.701608,63.4426417 234.105211,65.8195006 233.182834,68.8704399 L258.406171,68.8704399 Z" id="path-1"></path>
        <filter x="0.0%" y="0.0%" width="100.0%" height="100.0%" filterUnits="objectBoundingBox" id="filter-2">
            <feOffset dx="0" dy="0" in="SourceAlpha" result="shadowOffsetOuter1"></feOffset>
            <feColorMatrix values="0 0 0 0 0.374708199   0 0 0 0 0.728183461   0 0 0 0 0.410412771  0 0 0 1 0" type="matrix" in="shadowOffsetOuter1"></feColorMatrix>
        </filter>
    </defs>
    <g id="Page-1" stroke="none" stroke-width="1" fill="none" fill-rule="evenodd">
        <g id="1" transform="translate(-212.000000, -302.000000)">
            <g id="Group-2" transform="translate(212.000000, 302.000000)">
                <g id="Group">
                    <g id="Group-Copy">
                        <path d="M1.09478946,45.2019967 L68.3948776,0.886359322 L68.3948776,0.886359322 C69.5169637,0.147490142 71.0255661,0.45814884 71.7644352,1.58023494 C72.0259658,1.97740913 72.1653491,2.44252831 72.1653491,2.91807594 L72.1653491,15.7419895 L72.1653491,15.7419895 C72.1653491,16.5747568 71.7393602,17.349653 71.0362438,17.7958914 L16.380793,52.4834066 L16.380793,52.4834066 C15.2464543,53.2033236 14.9104992,54.7064949 15.6304163,55.8408337 C15.821722,56.1422649 16.0770306,56.3978934 16.3782221,56.5895765 L71.0388148,91.3764514 L71.0388148,91.3764514 C71.7404588,91.8229888 72.1653491,92.5970343 72.1653491,93.4287193 L72.1653491,106.249193 L72.1653491,106.249193 C72.1653491,107.592698 71.0762233,108.681824 69.7327186,108.681824 C69.2563408,108.681824 68.7904468,108.541954 68.3928421,108.279568 L1.09275391,63.8671717 L1.09275391,63.8671717 C0.410518175,63.4169535 -4.46433656e-15,62.6541964 -7.10542736e-15,61.8367969 L0,47.2337133 L-8.8817842e-16,47.2337133 C-9.88386845e-16,46.4154495 0.41138096,45.6520063 1.09478946,45.2019967 Z" id="&lt;" fill="#000000"></path>
                        <path d="M52.0172827,93.5662553 L119.317371,49.2506179 L119.317371,49.2506179 C120.439457,48.5117488 121.948059,48.8224074 122.686928,49.9444936 C122.948459,50.3416677 123.087842,50.8067869 123.087842,51.2823346 L123.087842,64.1062481 L123.087842,64.1062481 C123.087842,64.9390154 122.661853,65.7139116 121.958737,66.1601501 L67.3032863,100.847665 L67.3032863,100.847665 C66.1689476,101.567582 65.8329925,103.070754 66.5529095,104.205092 C66.7442153,104.506524 66.9995239,104.762152 67.3007153,104.953835 L121.961308,139.74071 L121.961308,139.74071 C122.662952,140.187247 123.087842,140.961293 123.087842,141.792978 L123.087842,154.613452 L123.087842,154.613452 C123.087842,155.956957 121.998717,157.046082 120.655212,157.046082 C120.178834,157.046082 119.71294,156.906212 119.315335,156.643827 L52.0152472,112.23143 L52.0152472,112.23143 C51.3330114,111.781212 50.9224933,111.018455 50.9224933,110.201055 L50.9224933,95.597972 L50.9224933,95.597972 C50.9224933,94.7797081 51.3338742,94.0162649 52.0172827,93.5662553 Z" id="&lt;-copy" fill="#65C86F" transform="translate(87.005168, 102.947758) scale(-1, 1) translate(-87.005168, -102.947758) "></path>
                    </g>
                    <path d="M223.843813,104.802348 C220.083353,109.343281 215.648915,112.802143 210.540365,115.179038 C205.431816,117.555932 199.720259,118.744362 193.405525,118.744362 C187.729358,118.744362 182.461246,117.715572 177.601029,115.657962 C172.740811,113.600352 168.536964,110.797787 164.98936,107.250183 C161.441756,103.702579 158.639191,99.4987315 156.581581,94.6385143 C154.523971,89.7782971 153.495181,84.5456599 153.495181,78.9404459 C153.495181,73.3352318 154.523971,68.1025947 156.581581,63.2423774 C158.639191,58.3821602 161.441756,54.1783127 164.98936,50.6307089 C168.536964,47.0831051 172.740811,44.2805401 177.601029,42.2229299 C182.461246,40.1653196 187.729358,39.13653 193.405525,39.13653 C199.507403,39.13653 204.881942,40.2007951 209.529303,42.3293574 C214.176664,44.4579197 218.309561,47.5442888 221.928117,51.5885571 L211.817496,61.3798947 C209.54703,58.7546679 206.93958,56.661613 203.995069,55.1006674 C201.050558,53.5397217 197.55622,52.7592605 193.511952,52.7592605 C189.964348,52.7592605 186.629651,53.3800819 183.507759,54.6217432 C180.385868,55.8634046 177.671992,57.6194421 175.366049,59.8899086 C173.060107,62.160375 171.233118,64.9097267 169.885029,68.1380462 C168.536939,71.3663657 167.862905,74.9671296 167.862905,78.9404459 C167.862905,82.9137621 168.536939,86.514526 169.885029,89.7428455 C171.233118,92.971165 173.060107,95.7205167 175.366049,97.9909832 C177.671992,100.26145 180.385868,102.017487 183.507759,103.259148 C186.629651,104.50081 189.964348,105.121631 193.511952,105.121631 C197.769077,105.121631 201.547218,104.252481 204.84649,102.514155 C208.145761,100.77583 211.07249,98.3102819 213.626765,95.1174384 L223.843813,104.802348 Z M233.635151,64.892005 L246.725743,64.892005 L246.725743,72.1290806 L247.577164,72.1290806 C248.215733,70.8519432 249.067145,69.6812515 250.131426,68.6169703 C251.195707,67.5526892 252.384137,66.630326 253.69675,65.8498532 C255.009364,65.0693804 256.428384,64.4662968 257.953853,64.0405843 C259.479323,63.6148718 260.987032,63.4020188 262.477026,63.4020188 C264.32178,63.4020188 265.90044,63.5793963 267.213053,63.9341567 C268.525667,64.2889171 269.643145,64.7500987 270.565522,65.3177153 L266.840557,77.9825976 C265.989132,77.5568852 265.049031,77.2198679 264.020226,76.9715356 C262.991421,76.7232033 261.73204,76.599039 260.242046,76.599039 C258.32634,76.599039 256.588041,76.9715319 255.027095,77.7165287 C253.466149,78.4615255 252.135818,79.5080529 251.036061,80.8561424 C249.936303,82.2042318 249.084891,83.7828918 248.481799,85.5921698 C247.878706,87.4014477 247.577164,89.3703383 247.577164,91.4989006 L247.577164,117.04152 L233.635151,117.04152 L233.635151,64.892005 Z M301.642376,63.1891636 C305.686644,63.1891636 309.393835,63.880936 312.764058,65.2645015 C316.134282,66.648067 319.043274,68.5637443 321.49112,71.011591 C323.938967,73.4594376 325.854644,76.3861669 327.23821,79.7918665 C328.621775,83.1975662 329.313548,86.9224943 329.313548,90.9667627 C329.313548,95.0110311 328.621775,98.7359592 327.23821,102.141659 C325.854644,105.547359 323.938967,108.474088 321.49112,110.921934 C319.043274,113.369781 316.134282,115.285458 312.764058,116.669024 C309.393835,118.052589 305.686644,118.744362 301.642376,118.744362 C297.598108,118.744362 293.890917,118.052589 290.520694,116.669024 C287.15047,115.285458 284.241479,113.369781 281.793632,110.921934 C279.345785,108.474088 277.430108,105.547359 276.046542,102.141659 C274.662977,98.7359592 273.971205,95.0110311 273.971205,90.9667627 C273.971205,86.9224943 274.662977,83.1975662 276.046542,79.7918665 C277.430108,76.3861669 279.345785,73.4594376 281.793632,71.011591 C284.241479,68.5637443 287.15047,66.648067 290.520694,65.2645015 C293.890917,63.880936 297.598108,63.1891636 301.642376,63.1891636 Z M301.642376,105.866624 C303.416178,105.866624 305.13674,105.529607 306.804114,104.855562 C308.471488,104.181518 309.943721,103.205941 311.220859,101.928804 C312.497996,100.651666 313.509048,99.0907441 314.254045,97.2459901 C314.999041,95.4012361 315.371534,93.3081812 315.371534,90.9667627 C315.371534,88.6253442 314.999041,86.5322893 314.254045,84.6875353 C313.509048,82.8427813 312.497996,81.2818591 311.220859,80.0047217 C309.943721,78.7275843 308.471488,77.7520079 306.804114,77.0779632 C305.13674,76.4039184 303.416178,76.0669011 301.642376,76.0669011 C299.797622,76.0669011 298.059322,76.4039184 296.427425,77.0779632 C294.795527,77.7520079 293.341031,78.7275843 292.063894,80.0047217 C290.786756,81.2818591 289.775704,82.8427813 289.030708,84.6875353 C288.285711,86.5322893 287.913218,88.6253442 287.913218,90.9667627 C287.913218,93.3081812 288.285711,95.4012361 289.030708,97.2459901 C289.775704,99.0907441 290.786756,100.651666 292.063894,101.928804 C293.341031,103.205941 294.795527,104.181518 296.427425,104.855562 C298.059322,105.529607 299.797622,105.866624 301.642376,105.866624 Z M332.71923,64.892005 L348.364085,64.892005 L356.984719,97.5652728 L357.729712,97.5652728 L368.053188,64.892005 L382.420911,64.892005 L392.850814,97.5652728 L393.595807,97.5652728 L402.110014,64.892005 L417.542014,64.892005 L400.832883,117.04152 L385.826594,117.04152 L375.396691,84.1553974 L374.651698,84.1553974 L364.221795,117.04152 L349.428361,117.04152 L332.71923,64.892005 Z M462.773736,110.762293 L461.922316,110.762293 C460.645178,112.961807 458.65855,114.842009 455.962371,116.402955 C453.266192,117.963901 449.931494,118.744362 445.958178,118.744362 C442.623431,118.744362 439.448373,118.052589 436.432909,116.669024 C433.417446,115.285458 430.756783,113.369781 428.450841,110.921934 C426.144898,108.474088 424.31791,105.547359 422.96982,102.141659 C421.621731,98.7359592 420.947696,95.0110311 420.947696,90.9667627 C420.947696,86.9224943 421.621731,83.1975662 422.96982,79.7918665 C424.31791,76.3861669 426.144898,73.4594376 428.450841,71.011591 C430.756783,68.5637443 433.417446,66.648067 436.432909,65.2645015 C439.448373,63.880936 442.623431,63.1891636 445.958178,63.1891636 C449.931494,63.1891636 453.266192,63.9696248 455.962371,65.5305705 C458.65855,67.0915161 460.645178,68.971718 461.922316,71.1712323 L462.773736,71.1712323 L461.922316,63.7213015 L461.922316,40.8393713 L475.864329,40.8393713 L475.864329,117.04152 L462.773736,117.04152 L462.773736,110.762293 Z M448.831723,105.866624 C450.676477,105.866624 452.432514,105.529607 454.099888,104.855562 C455.767262,104.181518 457.239495,103.205941 458.516633,101.928804 C459.79377,100.651666 460.82256,99.0907441 461.603033,97.2459901 C462.383506,95.4012361 462.773736,93.3081812 462.773736,90.9667627 C462.773736,88.6253442 462.383506,86.5322893 461.603033,84.6875353 C460.82256,82.8427813 459.79377,81.2818591 458.516633,80.0047217 C457.239495,78.7275843 455.767262,77.7520079 454.099888,77.0779632 C452.432514,76.4039184 450.676477,76.0669011 448.831723,76.0669011 C446.986969,76.0669011 445.230931,76.4216562 443.563558,77.131177 C441.896184,77.8406977 440.42395,78.8340119 439.146813,80.1111493 C437.869675,81.3882867 436.840886,82.9492089 436.060413,84.7939629 C435.27994,86.6387169 434.88971,88.6962963 434.88971,90.9667627 C434.88971,93.2372292 435.27994,95.2948085 436.060413,97.1395625 C436.840886,98.9843165 437.869675,100.545239 439.146813,101.822376 C440.42395,103.099514 441.896184,104.092828 443.563558,104.802348 C445.230931,105.511869 446.986969,105.866624 448.831723,105.866624 Z" id="Crowd-Copy" fill="#232323"></path>
                    <g id="Dynamic-group-Copy" transform="translate(505.264949, 8.780276)">
                        <rect id="BG" fill="#65C86F" x="0" y="0.266068957" width="287.354473" height="127.713099"></rect>
                        <g id="2:2">
                            <use fill="black" fill-opacity="1" filter="url(#filter-2)" xlink:href="#path-1"></use>
                            <use fill="#FFFFFF" fill-rule="evenodd" xlink:href="#path-1"></use>
                        </g>
                    </g>
                </g>
                <text id="Learning-Programming" font-family="OpenSans, Open Sans" font-size="39.5987095" font-weight="normal" fill="#616161">
                    <tspan x="18.0445265" y="227">Learning Programming should not be hard</tspan>
                </text>
            </g>
        </g>
    </g>
</svg>