<?xml version="1.0" encoding="UTF-8"?>
<svg width="10px" height="17px" viewBox="0 0 10 17" version="1.1" xmlns="http://www.w3.org/2000/svg" xmlns:xlink="http://www.w3.org/1999/xlink">
    <!-- Generator: Sketch 47.1 (45422) - http://www.bohemiancoding.com/sketch -->
    <title>Arrow-down - simple-line-icons</title>
    <desc>Created with Sketch.</desc>
    <defs></defs>
    <g id="Page-1" stroke="none" stroke-width="1" fill="none" fill-rule="evenodd">
        <g id="register-5" transform="translate(-17.000000, -83.000000)" stroke="#FFFFFF" fill="#FFFFFF">
            <path d="M14.15625,87.9627503 C14.15625,87.9038182 14.1685273,87.8424315 14.1930824,87.7785883 C14.2176375,87.7147451 14.2544695,87.6582693 14.3035797,87.6091592 C14.4017999,87.520761 14.5196624,87.4765625 14.6571708,87.4765625 C14.7946792,87.4765625 14.9125417,87.520761 15.010762,87.6091592 L21.6700622,94.2684594 L28.2262316,87.7122899 C28.3244518,87.6140697 28.4423144,87.5649603 28.5798227,87.5649603 C28.7173311,87.5649603 28.8351936,87.6140697 28.9334139,87.7122899 C29.0316342,87.8105102 29.0807436,87.9283727 29.0807436,88.0658811 C29.0807436,88.2033895 29.0316342,88.321252 28.9334139,88.4194723 L22.0236533,95.3292328 C21.9254331,95.4274531 21.8075705,95.4765625 21.6700622,95.4765625 C21.5325538,95.4765625 21.4146913,95.4274531 21.316471,95.3292328 L14.3035797,88.3310745 C14.2544695,88.2819643 14.2176375,88.2254885 14.1930824,88.1616454 C14.1685273,88.0978022 14.15625,88.0315045 14.15625,87.9627503 Z" id="Arrow-down---simple-line-icons" transform="translate(21.618497, 91.476562) rotate(90.000000) translate(-21.618497, -91.476562) "></path>
        </g>
    </g>
</svg>