<?xml version="1.0" encoding="UTF-8"?>
<svg width="279px" height="56px" viewBox="0 0 279 56" version="1.1" xmlns="http://www.w3.org/2000/svg" xmlns:xlink="http://www.w3.org/1999/xlink">
    <!-- Generator: Sketch 47.1 (45422) - http://www.bohemiancoding.com/sketch -->
    <title>Group</title>
    <desc>Created with Sketch.</desc>
    <defs>
        <text id="text-1" font-family="ProductSans-Bold, Product Sans" font-size="37.3161712" font-weight="bold" line-spacing="37.3161712" fill="#FFFFFF">
            <tspan x="3.87683107" y="39.8249075">Code</tspan>
        </text>
        <filter x="0.0%" y="0.0%" width="100.0%" height="100.0%" filterUnits="objectBoundingBox" id="filter-2">
            <feOffset dx="0" dy="0" in="SourceAlpha" result="shadowOffsetOuter1"></feOffset>
            <feColorMatrix values="0 0 0 0 0.374708199   0 0 0 0 0.728183461   0 0 0 0 0.410412771  0 0 0 1 0" type="matrix" in="shadowOffsetOuter1"></feColorMatrix>
        </filter>
    </defs>
    <g id="Page-1" stroke="none" stroke-width="1" fill="none" fill-rule="evenodd">
        <g id="splash-screen" transform="translate(-41.000000, -236.000000)">
            <g id="Group-2" transform="translate(39.000000, 236.000000)">
                <g id="Group" transform="translate(2.120000, 0.000000)">
                    <g id="Group-Copy">
                        <path d="M0.383860556,15.8489501 L23.980954,0.310779737 L23.980954,0.310779737 C24.3743854,0.0517137309 24.9033391,0.160638437 25.1624051,0.554069878 C25.2541042,0.693329077 25.3029755,0.856411489 25.3029755,1.02315038 L25.3029755,5.51953507 L25.3029755,5.51953507 C25.3029755,5.81152412 25.1536132,6.0832221 24.907083,6.23968444 L5.74351556,18.4019944 L5.74351556,18.4019944 C5.34578805,18.6544154 5.22799378,19.1814648 5.4804147,19.5791923 C5.54749127,19.6848816 5.63700885,19.7745114 5.74261411,19.8417203 L24.9079844,32.0388683 L24.9079844,32.0388683 C25.1539984,32.1954355 25.3029755,32.4668352 25.3029755,32.7584447 L25.3029755,37.2536234 L25.3029755,37.2536234 C25.3029755,37.7246897 24.9211008,38.1065645 24.4500345,38.1065645 C24.2830045,38.1065645 24.1196504,38.0575226 23.9802403,37.9655236 L0.383146839,22.3934271 L0.383146839,22.3934271 C0.143937935,22.2355693 -1.88754422e-15,21.9681276 -7.77156117e-16,21.6815269 L0,16.5613207 L-7.77156117e-16,16.5613207 C-8.12291696e-16,16.274417 0.144240449,16.0067347 0.383860556,15.8489501 Z" id="&lt;" fill="#000000"></path>
                        <path d="M18.2385598,32.8066683 L41.8356532,17.2684979 L41.8356532,17.2684979 C42.2290846,17.0094319 42.7580383,17.1183566 43.0171043,17.5117881 C43.1088034,17.6510473 43.1576747,17.8141297 43.1576747,17.9808686 L43.1576747,22.4772532 L43.1576747,22.4772532 C43.1576747,22.7692423 43.0083124,23.0409403 42.7617822,23.1974026 L23.5982148,35.3597126 L23.5982148,35.3597126 C23.2004872,35.6121335 23.082693,36.139183 23.3351139,36.5369105 C23.4021905,36.6425998 23.4917081,36.7322296 23.5973133,36.7994384 L42.7626836,48.9965864 L42.7626836,48.9965864 C43.0086976,49.1531536 43.1576747,49.4245533 43.1576747,49.7161629 L43.1576747,54.2113416 L43.1576747,54.2113416 C43.1576747,54.6824079 42.7758,55.0642826 42.3047337,55.0642826 C42.1377037,55.0642826 41.9743496,55.0152407 41.8349394,54.9232417 L18.237846,39.3511452 L18.237846,39.3511452 C17.9986371,39.1932875 17.8546992,38.9258458 17.8546992,38.6392451 L17.8546992,33.5190389 L17.8546992,33.5190389 C17.8546992,33.2321351 17.9989396,32.9644529 18.2385598,32.8066683 Z" id="&lt;-copy" fill="#65C86F" transform="translate(30.506187, 36.096057) scale(-1, 1) translate(-30.506187, -36.096057) "></path>
                    </g>
                    <text id="Crowd-Copy" font-family="ProductSans-Bold, Product Sans" font-size="37.3161712" font-weight="bold" fill="#232323">
                        <tspan x="52.4385495" y="41.0376831">Crowd</tspan>
                    </text>
                    <g id="Dynamic-group-Copy" transform="translate(177.158523, 3.078584)">
                        <rect id="BG" fill="#65C86F" x="0" y="0.0932904279" width="100.753662" height="44.7794054"></rect>
                        <g id="2:2" fill-opacity="1" fill="#FFFFFF">
                            <use filter="url(#filter-2)" xlink:href="#text-1"></use>
                            <use xlink:href="#text-1"></use>
                        </g>
                    </g>
                </g>
            </g>
        </g>
    </g>
</svg>