<?xml version="1.0" encoding="UTF-8"?>
<svg width="8px" height="8px" viewBox="0 0 8 8" version="1.1" xmlns="http://www.w3.org/2000/svg" xmlns:xlink="http://www.w3.org/1999/xlink">
    <!-- Generator: Sketch 47.1 (45422) - http://www.bohemiancoding.com/sketch -->
    <title>clock-circle-o - anticon</title>
    <desc>Created with Sketch.</desc>
    <defs></defs>
    <g id="Page-1" stroke="none" stroke-width="1" fill="none" fill-rule="evenodd">
        <g id="home-2" transform="translate(-280.000000, -341.000000)" fill="#616161">
            <g id="Group-3-Copy" transform="translate(16.000000, 327.000000)">
                <g id="Group-2" transform="translate(264.000000, 14.000000)">
                    <path d="M6.0078125,0.53515625 C6.62239891,0.891928867 7.10807113,1.37760109 7.46484375,1.9921875 C7.82161637,2.60677391 8,3.27603805 8,4 C8,4.72396195 7.82161637,5.39322609 7.46484375,6.0078125 C7.10807113,6.62239891 6.62239891,7.10807113 6.0078125,7.46484375 C5.39322609,7.82161637 4.72396195,8 4,8 C3.27603805,8 2.60677391,7.82161637 1.9921875,7.46484375 C1.37760109,7.10807113 0.891928867,6.62239891 0.53515625,6.0078125 C0.178383633,5.39322609 0,4.72396195 0,4 C0,3.27603805 0.178383633,2.60677391 0.53515625,1.9921875 C0.891928867,1.37760109 1.37760109,0.891928867 1.9921875,0.53515625 C2.60677391,0.178383633 3.27603805,0 4,0 C4.72396195,0 5.39322609,0.178383633 6.0078125,0.53515625 Z M6.4296875,6.4296875 C6.74739742,6.11197758 6.99479078,5.74739789 7.171875,5.3359375 C7.34895922,4.91406039 7.4375,4.46875234 7.4375,4 C7.4375,3.53124766 7.34635508,3.08593961 7.1640625,2.6640625 C6.99218664,2.25260211 6.74739742,1.88802242 6.4296875,1.5703125 C6.11197758,1.25260258 5.74739789,1.00520922 5.3359375,0.828125 C4.91406039,0.651040781 4.46875234,0.5625 4,0.5625 C3.53124766,0.5625 3.08593961,0.653644922 2.6640625,0.8359375 C2.25260211,1.00781336 1.88802242,1.25260258 1.5703125,1.5703125 C1.25260258,1.88802242 1.00520922,2.25260211 0.828125,2.6640625 C0.651040781,3.08593961 0.5625,3.53124766 0.5625,4 C0.5625,4.46875234 0.653644922,4.91406039 0.8359375,5.3359375 C1.00781336,5.74739789 1.25260258,6.11197758 1.5703125,6.4296875 C1.88802242,6.74739742 2.25260211,6.99479078 2.6640625,7.171875 C3.08593961,7.34895922 3.53124766,7.4375 4,7.4375 C4.46875234,7.4375 4.91406039,7.34635508 5.3359375,7.1640625 C5.74739789,6.99218664 6.11197758,6.74739742 6.4296875,6.4296875 Z M5.7265625,3.9375 C5.80468789,3.9375 5.87109348,3.96484348 5.92578125,4.01953125 C5.98046902,4.07421902 6.0078125,4.14062461 6.0078125,4.21875 C6.0078125,4.29687539 5.98046902,4.36328098 5.92578125,4.41796875 C5.87109348,4.47265652 5.80468789,4.5 5.7265625,4.5 L4.28125,4.5 C4.12499922,4.5 3.99218805,4.44531305 3.8828125,4.3359375 C3.77343695,4.22656195 3.71875,4.09375078 3.71875,3.9375 L3.71875,2.0625 C3.71875,1.98437461 3.74609348,1.91796902 3.80078125,1.86328125 C3.85546902,1.80859348 3.92187461,1.78125 4,1.78125 C4.07812539,1.78125 4.14453098,1.80859348 4.19921875,1.86328125 C4.25390652,1.91796902 4.28125,1.98437461 4.28125,2.0625 L4.28125,3.9375 L5.7265625,3.9375 Z" id="clock-circle-o---anticon"></path>
                </g>
            </g>
        </g>
    </g>
</svg>