<?xml version="1.0" encoding="UTF-8"?>
<svg width="90px" height="72px" viewBox="0 0 90 72" version="1.1" xmlns="http://www.w3.org/2000/svg" xmlns:xlink="http://www.w3.org/1999/xlink">
    <!-- Generator: Sketch 47.1 (45422) - http://www.bohemiancoding.com/sketch -->
    <title>rice</title>
    <desc>Created with Sketch.</desc>
    <defs></defs>
    <g id="Page-1" stroke="none" stroke-width="1" fill="none" fill-rule="evenodd">
        <g id="home-4" transform="translate(-136.000000, -230.000000)" fill-rule="nonzero">
            <g id="Group-2" transform="translate(32.000000, 125.000000)">
                <g id="rice" transform="translate(104.000000, 105.000000)">
                    <g id="Group" transform="translate(14.736232, 7.975460)" fill="#64C56E">
                        <path d="M65.0283884,20.3496933 C64.2952986,19.3920245 63.4638899,18.1904908 62.9990261,16.9319018 C62.5267884,15.6552147 62.4745565,14.2696319 62.4232464,12.9861963 C62.3919072,12.201227 62.3581101,11.3733129 62.2173913,10.7515337 C62.2877507,11.0644172 62.331687,11.4064417 62.3614899,11.7849693 C61.0885681,11.3662577 59.6521913,10.8819018 58.4573101,9.94386503 C57.6099246,9.27883436 56.9730029,8.4095092 56.4264116,7.5493865 C56.6906435,7.69417178 56.9600986,7.82055215 57.2310899,7.94018405 C56.5877159,7.65674847 55.9538667,7.31533742 55.3777797,6.86288344 C54.2194609,5.95368098 53.4525739,4.6696319 52.7760174,3.53711656 C52.8761797,3.70490798 52.9797217,3.87638037 53.0844928,4.04877301 C52.5256116,4.02300613 51.8398377,4.0797546 51.1666609,4.13650307 C49.7613159,4.25460123 48.168858,4.38895706 46.6267884,3.91779141 C45.1538493,3.46717791 43.9522087,2.48282209 42.8919014,1.61472393 C41.9981217,0.883128834 41.0742319,0.126380368 40.3604986,0.0233128834 C39.7377101,-0.0699386503 38.6817043,0.371165644 37.6601101,0.794785276 C36.3411014,1.34171779 34.8469623,1.96134969 33.2117971,1.96134969 C31.5769391,1.96134969 30.0824928,1.34171779 28.7640986,0.794785276 C27.7425043,0.370858896 26.687113,-0.0687116564 26.0627884,0.0233128834 C25.3493623,0.126687117 24.4254725,0.883128834 23.5316928,1.61503067 C22.4713855,2.48343558 21.2691304,3.46748466 19.797113,3.91779141 C18.2541217,4.3892638 16.6610493,4.25521472 15.2563188,4.13650307 C14.1490029,4.04325153 13.0045101,3.94693252 12.4542319,4.22392638 C11.7961101,4.55582822 11.1717855,5.60092025 10.5680464,6.61165644 C9.89148986,7.74386503 9.1246029,9.02730061 7.9672058,9.93619632 C6.75942029,10.8837423 5.30645217,11.3610429 4.0240058,11.7825153 C2.99688116,12.1202454 1.8318029,12.5027607 1.46249275,12.9776074 C1.01852174,13.5490798 0.969362319,14.796319 0.921124638,16.002454 C0.870121739,17.2858896 0.817275362,18.8453988 0.34595942,20.1214724 C0.275292754,20.3128834 0.193872464,19.995092 0.107843478,20.9153374 L65.2824812,20.9153374 C65.1979884,19.9953988 65.1131884,20.4604294 65.0283884,20.3496933 Z" id="Shape"></path>
                    </g>
                    <g id="Group" transform="translate(27.640580, 65.337423)" fill="#28C1F9">
                        <path d="M3.20212174,0.0567484663 C3.3284,0.0567484663 3.06662609,0.0567484663 3.98836522,0.0567484663 L3.98836522,1.5904908 L35.634742,1.5904908 L35.634742,0.148159509 C35.634742,0.164110429 11.7527884,0.0567484663 3.20212174,0.0567484663 Z" id="Shape"></path>
                    </g>
                    <path d="M8.00753623,35.946319 C8.47608696,43.9217791 11.2772522,50.5990798 15.5276986,55.6104294 C19.3787246,58.8607362 24.013229,60.7929448 28.9995304,60.7929448 L60.7374667,60.7929448 C72.5796638,60.7929448 82.4545623,50.3634969 84.4909913,35.946319 L8.00753623,35.946319 L8.00753623,35.946319 Z" id="Shape" fill="#28C1F9"></path>
                    <path d="M23.188887,64.8039877 L23.188887,68.9576687 C23.188887,70.2312883 24.222771,71.2634969 25.498458,71.2634969 L64.2385391,71.2634969 C65.5142261,71.2634969 66.5481101,70.2312883 66.5481101,68.9576687 L66.5481101,64.8039877 C79.6306609,61.5447853 89.4978783,47.506135 89.4978783,30.7322086 C89.4978783,29.458589 88.4639942,28.4263804 87.1883072,28.4263804 L85.4013623,28.4263804 C84.9100754,27.2223926 84.1201449,26.1877301 83.4340638,25.2920245 C82.8469159,24.5254601 82.2926435,23.801227 82.0686609,23.195092 C81.8495942,22.6030675 81.8136464,21.6886503 81.7752406,20.7211656 C81.7054957,18.9705521 81.6188522,16.7917178 80.2678899,15.0533742 C79.0336812,13.4650307 77.1564058,12.8484663 75.5006551,12.3039877 C74.535287,11.9865031 73.5370435,11.6588957 72.9692522,11.2128834 C72.4841101,10.8322086 71.9731594,9.97699387 71.4791072,9.15030675 C70.5810261,7.64754601 69.5631188,5.94417178 67.7082725,5.00920245 C65.9898435,4.14325153 64.1015072,4.30276074 62.4346957,4.44294479 C61.3977391,4.5303681 60.3254493,4.6202454 59.6356812,4.4101227 C59.0350145,4.22638037 58.2432406,3.57791411 57.4772754,2.95092025 C56.1591884,1.87147239 54.6650493,0.648159509 52.6783942,0.361042945 C50.7971246,0.0914110429 49.069171,0.805828221 47.5449217,1.43773006 C46.5798609,1.83803681 45.5825391,2.25153374 44.8684986,2.25153374 C44.1550725,2.25153374 43.1574435,1.83773006 42.1926899,1.43773006 C40.6681333,0.805214724 38.9401797,0.0883435583 37.0579884,0.360736196 C35.0713333,0.648159509 33.5775014,1.87116564 32.2594145,2.9506135 C31.4937565,3.57760736 30.7016754,4.22607362 30.1013159,4.40981595 C29.4112406,4.62055215 28.3383362,4.5309816 27.3013797,4.44263804 C25.6351826,4.30214724 23.7462319,4.14263804 22.0290319,5.00889571 C20.1732638,5.94417178 19.1553565,7.64785276 18.2572754,9.1506135 C17.7635304,9.97730061 17.252887,10.8322086 16.7683594,11.2122699 C16.2002609,11.6582822 15.2020174,11.9858896 14.2369565,12.3033742 C12.5808986,12.847546 10.7036232,13.4641104 9.46972174,15.052454 C8.11845217,16.7907975 8.0318087,18.9699387 7.96237101,20.7211656 C7.92365797,21.6889571 7.8874029,22.6027607 7.66864348,23.1947853 C7.44466087,23.801227 6.89008116,24.5254601 6.30262609,25.2923313 C5.61654493,26.1880368 4.82784348,27.2230061 4.33655652,28.4263804 L2.54838261,28.4263804 C1.2730029,28.4263804 0.238811594,29.458589 0.238811594,30.7322086 C0.238811594,47.506135 10.106029,61.5447853 23.188887,64.8039877 Z M9.97237681,28.0929448 C10.7060812,27.1349693 11.5377971,26.0490798 12.0026609,24.790184 C12.4739768,23.5141104 12.5268232,22.1871166 12.5778261,20.903681 C12.6260638,19.6972393 12.6752232,18.45 13.1191942,17.8788344 C13.4885043,17.4039877 14.6535826,17.0214724 15.6807072,16.6837423 C16.9631536,16.2625767 18.4161217,15.7849693 19.6239072,14.8374233 C20.7813043,13.9282209 21.5478841,12.645092 22.2247478,11.5128834 C22.828487,10.5018405 23.4528116,9.45674847 24.1109333,9.12515337 C24.6612116,8.84785276 25.8060116,8.94478528 26.9130203,9.03773006 C28.3177507,9.15613497 29.9105159,9.2904908 31.4538145,8.81871166 C32.9258319,8.36871166 34.128087,7.38435583 35.1887014,6.51625767 C36.0824812,5.78466258 37.006371,5.02791411 37.7197971,4.92453988 C38.3441217,4.83282209 39.3992058,5.27208589 40.4208,5.69631902 C41.7391942,6.24294479 43.2339478,6.86288344 44.8684986,6.86288344 C46.5036638,6.86288344 47.9978029,6.24325153 49.3168116,5.69601227 C50.3380986,5.27269939 51.3941043,4.83128834 52.0172,4.92453988 C52.7309333,5.02760736 53.6548232,5.78404908 54.5482957,6.51595092 C55.6086029,7.38435583 56.8102435,8.36840491 58.2834899,8.8190184 C59.8255594,9.29018405 61.4180174,9.15552147 62.8233623,9.03773006 C63.9306783,8.94386503 65.0757855,8.84754601 65.6260638,9.12546012 C66.2841855,9.45705521 66.9085101,10.5018405 67.5122493,11.5122699 C68.1888058,12.6447853 68.9556928,13.9282209 70.1140116,14.8374233 C71.3205681,15.7846626 72.7741507,16.2622699 74.0559826,16.6840491 C75.084029,17.0217791 76.2488,17.4046012 76.6184174,17.8797546 C77.0623884,18.4506135 77.1115478,19.697546 77.1597855,20.903681 C77.2110957,22.1871166 77.2633275,23.5144172 77.735258,24.7911043 C78.2001217,26.0493865 79.0315304,27.1346626 79.7646203,28.092638 C79.8494203,28.2033742 79.9342203,28.3150307 80.018713,28.4260736 L9.71828406,28.4260736 C9.80246957,28.3150307 9.88757681,28.203681 9.97237681,28.0929448 Z M84.8089913,33.0380368 C83.8635942,48.6027607 73.4282783,60.9058282 60.7374667,60.9058282 L28.9995304,60.9058282 C16.3087188,60.9058282 5.87371014,48.602454 4.9280058,33.0380368 L84.8089913,33.0380368 Z M61.9289681,66.6515337 L27.808029,66.6515337 L27.808029,65.4852761 C28.2031478,65.504908 61.5338493,65.504908 61.9289681,65.4852761 L61.9289681,66.6515337 Z" id="Shape" fill="#3F2D20"></path>
                </g>
            </g>
        </g>
    </g>
</svg>