<?xml version="1.0" encoding="UTF-8"?>
<svg width="153px" height="120px" viewBox="0 0 153 120" version="1.1" xmlns="http://www.w3.org/2000/svg" xmlns:xlink="http://www.w3.org/1999/xlink">
    <!-- Generator: Sketch 47.1 (45422) - http://www.bohemiancoding.com/sketch -->
    <title>Group</title>
    <desc>Created with Sketch.</desc>
    <defs></defs>
    <g id="Page-1" stroke="none" stroke-width="1" fill="none" fill-rule="evenodd">
        <g id="home-6-copy-2" transform="translate(-104.000000, -177.000000)">
            <g id="Group" transform="translate(107.000000, 180.000000)">
                <path d="M0.423770112,17.5295326 C6.30670903,5.83676361 14.2829727,0.076420788 24.3525612,0.248504169 C34.4221497,0.420587549 42.3984133,6.18093037 48.2813523,17.5295326" id="Path-2" stroke="#ED4C4C" stroke-width="5.52631579" stroke-linecap="round" stroke-linejoin="round" transform="translate(24.352561, 8.887147) scale(1, -1) translate(-24.352561, -8.887147) "></path>
                <path d="M98.6842105,17.2847722 C104.567149,5.59200319 112.543413,-0.168339631 122.613002,0.00374374947 C132.68259,0.17582713 140.658854,5.93616995 146.541793,17.2847722" id="Path-2-Copy" stroke="#ED4C4C" stroke-width="5.52631579" stroke-linecap="round" stroke-linejoin="round" transform="translate(122.613002, 8.642386) scale(1, -1) translate(-122.613002, -8.642386) "></path>
                <path d="M0.153070478,62.6169906 C25.1555336,74.6180011 50.0099501,80.6185064 74.7163197,80.6185064 C99.4226894,80.6185064 124.277106,74.6180011 149.279569,62.6169906 C140.548384,98.8450964 115.693968,116.972766 74.7163197,117 C33.7386715,117.027234 8.88425504,98.8995641 0.153070478,62.6169906 Z" id="Path-3" fill-opacity="0.1" fill="#ED4C4C" transform="translate(74.716320, 89.808511) scale(1, -1) translate(-74.716320, -89.808511) "></path>
            </g>
        </g>
    </g>
</svg>