<?xml version="1.0" encoding="UTF-8"?>
<svg width="18px" height="18px" viewBox="0 0 18 18" version="1.1" xmlns="http://www.w3.org/2000/svg" xmlns:xlink="http://www.w3.org/1999/xlink">
    <!-- Generator: Sketch 47.1 (45422) - http://www.bohemiancoding.com/sketch -->
    <title>ion-trophy - Ionicons</title>
    <desc>Created with Sketch.</desc>
    <defs></defs>
    <g id="Page-1" stroke="none" stroke-width="1" fill="none" fill-rule="evenodd">
        <g id="home" transform="translate(-284.000000, -42.000000)" fill="#FFFFFF">
            <path d="M302,44.8526786 C302,46.9151889 301.70536,48.5491011 301.116071,49.7544643 C300.526783,50.9598275 299.683041,51.9642817 298.584821,52.7678571 C297.647317,53.4375033 296.616077,53.9062487 295.491071,54.1741071 C294.874997,54.8169675 294.258932,55.2321419 293.642857,55.4196429 L293.642857,56.7455357 C293.642857,56.7991074 293.649554,56.8727674 293.662946,56.9665179 C293.676339,57.0602683 293.756696,57.2142846 293.904018,57.4285714 C294.05134,57.6428582 294.245535,57.8370527 294.486607,58.0111607 C294.72768,58.1852687 295.122765,58.3459814 295.671875,58.4933036 C296.220985,58.6406257 296.870532,58.7142857 297.620536,58.7142857 L298.142857,58.7142857 L298.142857,60 L287.857143,60 L287.857143,58.7142857 L288.379464,58.7142857 C290.816976,58.7142857 292.142856,58.0982204 292.357143,56.8660714 L292.357143,55.4196429 C291.741068,55.2321419 291.125003,54.8169675 290.508929,54.1741071 C289.330351,53.8794628 288.299112,53.4107175 287.415179,52.7678571 C286.316959,51.9642817 285.473217,50.9598275 284.883929,49.7544643 C284.348212,48.6294587 284.053572,47.3303645 284,45.8571429 L284,44.5714286 L287.214286,44.5714286 L287.214286,42 L298.745536,42 C298.799107,42.7767896 298.799107,43.6339239 298.745536,44.5714286 L302,44.5714286 L302,44.8526786 Z M286.049107,49.1919643 C286.745539,50.6116142 287.776779,51.6562467 289.142857,52.3258929 C288.419639,51.0133863 287.857145,49.2053687 287.455357,46.9017857 C287.428571,46.6874989 287.388393,46.3392881 287.334821,45.8571429 L285.285714,45.8571429 C285.339286,47.1160777 285.593748,48.2276738 286.049107,49.1919643 Z M299.950893,49.1919643 C300.406252,48.2276738 300.660714,47.1160777 300.714286,45.8571429 L298.665179,45.8571429 C298.638393,45.9910721 298.604911,46.1718739 298.564732,46.3995536 C298.524553,46.6272333 298.504464,46.7946423 298.504464,46.9017857 C298.102677,49.2053687 297.540182,51.0133863 296.816964,52.3258929 C298.236614,51.6294608 299.281247,50.5848284 299.950893,49.1919643 Z" id="ion-trophy---Ionicons"></path>
        </g>
    </g>
</svg>