<?xml version="1.0" encoding="UTF-8"?>
<svg width="213px" height="94px" viewBox="0 0 213 94" version="1.1" xmlns="http://www.w3.org/2000/svg" xmlns:xlink="http://www.w3.org/1999/xlink">
    <!-- Generator: Sketch 47.1 (45422) - http://www.bohemiancoding.com/sketch -->
    <title>soup copy</title>
    <desc>Created with Sketch.</desc>
    <defs></defs>
    <g id="Page-1" stroke="none" stroke-width="1" fill="none" fill-rule="evenodd">
        <g id="home-3-copy" transform="translate(-74.000000, -196.000000)">
            <g id="soup-copy" transform="translate(74.000000, 189.000000)">
                <g id="Group" transform="translate(4.421818, 0.942779)">
                    <text id="133" transform="translate(18.373468, 31.574485) rotate(40.000000) translate(-18.373468, -31.574485) " font-family="OpenSans-Bold, Open Sans" font-size="16" font-weight="bold" fill="#28C1F9">
                        <tspan x="4.67424898" y="37.5744846">133</tspan>
                    </text>
                    <text id="99" transform="translate(54.500000, 38.000000) rotate(-20.000000) translate(-54.500000, -38.000000) " font-family="OpenSans-Bold, Open Sans" font-size="16" font-weight="bold" fill="#28C1F9">
                        <tspan x="45.3671875" y="44">99</tspan>
                    </text>
                    <text id="5" font-family="OpenSans-Bold, Open Sans" font-size="16" font-weight="bold" fill="#28C1F9">
                        <tspan x="37.2442923" y="17.5433619">5</tspan>
                    </text>
                    <text id="“Tom”" transform="translate(183.616102, 15.630628) rotate(10.000000) translate(-183.616102, -15.630628) " font-family="OpenSans-Bold, Open Sans" font-size="16" font-weight="bold" fill="#64C56E">
                        <tspan x="159.53407" y="21.6306275">“Tom”</tspan>
                    </text>
                    <text id="“Code&quot;" transform="translate(149.500000, 38.000000) rotate(-10.000000) translate(-149.500000, -38.000000) " font-family="OpenSans-Bold, Open Sans" font-size="16" font-weight="bold" fill="#64C56E">
                        <tspan x="122.402344" y="44">“Code"</tspan>
                    </text>
                    <path d="M133.935418,64.933515 C134.294138,72.8354223 136.733876,79.8092643 140.88928,85.0010899 C143.416349,87.0678474 146.320102,88.6392371 149.586444,90.0016349 L177.561905,90.0016349 C188.20688,85.6419619 195.138909,77.1950954 196.885251,64.933515 L133.935418,64.933515 Z M149.294051,83.8321526 C148.901338,84.4588556 148.221484,84.8038147 147.525047,84.8038147 C147.152233,84.8038147 146.775273,84.7049046 146.434793,84.4975477 C140.608495,80.946049 136.594313,75.2623978 134.825862,68.0607629 C134.555855,66.9610354 135.241236,65.8542234 136.356087,65.5882834 C137.471767,65.3220708 138.594356,65.9978202 138.864364,67.0970027 C140.369993,73.2286104 143.743287,78.0408719 148.619724,81.0128065 C149.595287,81.6079019 149.897353,82.8700272 149.294051,83.8321526 Z" id="Shape" fill="#64C56E" fill-rule="nonzero"></path>
                </g>
                <rect id="Rectangle-path" fill="#64C56E" fill-rule="nonzero" x="160.133309" y="94.2141689" width="19.8981818" height="2.9972752"></rect>
                <path d="M153.041265,81.9555858 C148.164829,78.9833787 144.791535,74.1713896 143.285905,68.039782 C143.015898,66.9405995 141.893309,66.2648501 140.777905,66.5310627 C139.663055,66.7972752 138.977673,67.9040872 139.24768,69.0035422 C141.015855,76.2051771 145.030313,81.8888283 150.856611,85.440327 C151.197091,85.6474114 151.574327,85.746594 151.947142,85.746594 C152.643302,85.746594 153.323433,85.4019074 153.716145,84.7749319 C154.319171,83.8128065 154.017105,82.5506812 153.041265,81.9555858 Z" id="Shape" fill="#3F2D20" fill-rule="nonzero"></path>
                <path d="M203.83552,57.5910082 L132.156189,57.5910082 C131.008727,57.5910082 130.078764,58.5079019 130.078764,59.6392371 C130.078764,67.713624 132.077702,75.1555858 135.859738,81.1607629 C139.617178,87.127248 145.090007,91.5694823 151.740698,94.0741144 L151.740698,98.9438692 C151.740698,100.075204 152.670938,100.992098 153.818124,100.992098 L182.173862,100.992098 C183.321047,100.992098 184.251287,100.075204 184.251287,98.9438692 L184.251287,94.0735695 C190.901978,91.5692098 196.374255,87.127248 200.131971,81.1604905 C203.914284,75.1553134 205.913222,67.7133515 205.913222,59.6389646 C205.912945,58.5079019 204.982705,57.5910082 203.83552,57.5910082 Z M155.895549,96.8953678 L155.895549,94.6283379 L180.09616,94.6283379 L180.09616,96.8953678 L155.895549,96.8953678 Z M154.007985,90.5318801 C142.184596,86.453406 134.919549,75.7749319 134.279767,61.6874659 L201.711942,61.6874659 C201.07216,75.7749319 193.807113,86.453406 181.983724,90.5318801 L154.007985,90.5318801 Z" id="Shape" fill="#3F2D20" fill-rule="nonzero"></path>
                <g id="soup" transform="translate(0.000000, 57.000000)" fill-rule="nonzero">
                    <g id="Group" transform="translate(4.421818, 6.942779)" fill="#28C1F9">
                        <path d="M3.93541818,1.93351499 C4.29413818,9.83542234 6.73387636,16.8092643 10.88928,22.0010899 C13.4163491,24.0678474 16.3201018,25.6392371 19.5864436,27.0016349 L47.5619055,27.0016349 C58.20688,22.6419619 65.1389091,14.1950954 66.8852509,1.93351499 L3.93541818,1.93351499 Z M19.2940509,20.8321526 C18.9013382,21.4588556 18.2214836,21.8038147 17.5250473,21.8038147 C17.1522327,21.8038147 16.7752727,21.7049046 16.4347927,21.4975477 C10.6084945,17.946049 6.59431273,12.2623978 4.82586182,5.06076294 C4.55585455,3.96103542 5.24123636,2.85422343 6.35608727,2.58828338 C7.47176727,2.32207084 8.59435636,2.99782016 8.86436364,4.09700272 C10.3699927,10.2286104 13.7432873,15.0408719 18.6197236,18.0128065 C19.5952873,18.6079019 19.8973527,19.8700272 19.2940509,20.8321526 Z" id="Shape"></path>
                    </g>
                    <rect id="Rectangle-path" fill="#28C1F9" x="30.1333091" y="37.2141689" width="19.8981818" height="2.9972752"></rect>
                    <path d="M23.0412655,24.9555858 C18.1648291,21.9833787 14.7915345,17.1713896 13.2859055,11.039782 C13.0158982,9.94059946 11.8933091,9.26485014 10.7779055,9.53106267 C9.66305455,9.7972752 8.97767273,10.9040872 9.24768,12.0035422 C11.0158545,19.2051771 15.0303127,24.8888283 20.8566109,28.440327 C21.1970909,28.6474114 21.5743273,28.746594 21.9471418,28.746594 C22.6433018,28.746594 23.3234327,28.4019074 23.7161455,27.7749319 C24.3191709,26.8128065 24.0171055,25.5506812 23.0412655,24.9555858 Z" id="Shape" fill="#3F2D20"></path>
                    <path d="M73.83552,0.591008174 L2.15618909,0.591008174 C1.00872727,0.591008174 0.0787636364,1.50790191 0.0787636364,2.63923706 C0.0787636364,10.713624 2.07770182,18.1555858 5.85973818,24.1607629 C9.61717818,30.127248 15.0900073,34.5694823 21.7406982,37.0741144 L21.7406982,41.9438692 C21.7406982,43.0752044 22.6709382,43.9920981 23.8181236,43.9920981 L52.1738618,43.9920981 C53.3210473,43.9920981 54.2512873,43.0752044 54.2512873,41.9438692 L54.2512873,37.0735695 C60.9019782,34.5692098 66.3742545,30.127248 70.1319709,24.1604905 C73.9142836,18.1553134 75.9132218,10.7133515 75.9132218,2.63896458 C75.9129455,1.50790191 74.9827055,0.591008174 73.83552,0.591008174 Z M25.8955491,39.8953678 L25.8955491,37.6283379 L50.09616,37.6283379 L50.09616,39.8953678 L25.8955491,39.8953678 Z M24.0079855,33.5318801 C12.1845964,29.453406 4.91954909,18.7749319 4.27976727,4.68746594 L71.7119418,4.68746594 C71.07216,18.7749319 63.8071127,29.453406 51.9837236,33.5318801 L24.0079855,33.5318801 Z" id="Shape" fill="#3F2D20"></path>
                </g>
            </g>
        </g>
    </g>
</svg>