<?xml version="1.0" encoding="UTF-8"?>
<svg width="127px" height="17px" viewBox="0 0 127 17" version="1.1" xmlns="http://www.w3.org/2000/svg" xmlns:xlink="http://www.w3.org/1999/xlink">
    <!-- Generator: Sketch 47.1 (45422) - http://www.bohemiancoding.com/sketch -->
    <title>string myName;</title>
    <desc>Created with Sketch.</desc>
    <defs></defs>
    <g id="Page-1" stroke="none" stroke-width="1" fill="none" fill-rule="evenodd">
        <g id="home-3-copy" transform="translate(-117.000000, -272.000000)" fill="#3F2D20">
            <g id="Group-2" transform="translate(32.000000, 125.000000)">
                <path d="M91.8203125,157.40625 C91.8203125,158.302088 91.5091177,158.984373 90.8867188,159.453125 C90.2643198,159.921877 89.3333395,160.15625 88.09375,160.15625 C87.4583302,160.15625 86.9166689,160.113282 86.46875,160.027344 C86.0208311,159.941406 85.6015645,159.815105 85.2109375,159.648438 L85.2109375,157.679688 C85.653648,157.888022 86.152341,158.062499 86.7070312,158.203125 C87.2617215,158.343751 87.7499979,158.414062 88.171875,158.414062 C89.0364627,158.414062 89.46875,158.164065 89.46875,157.664062 C89.46875,157.476562 89.4114589,157.324219 89.296875,157.207031 C89.1822911,157.089843 88.9843764,156.957032 88.703125,156.808594 C88.4218736,156.660156 88.0468773,156.48698 87.578125,156.289062 C86.9062466,156.007811 86.412762,155.747397 86.0976562,155.507812 C85.7825505,155.268228 85.5533861,154.993491 85.4101562,154.683594 C85.2669264,154.373696 85.1953125,153.99219 85.1953125,153.539062 C85.1953125,152.763017 85.4960907,152.162763 86.0976562,151.738281 C86.6992218,151.3138 87.5520778,151.101562 88.65625,151.101562 C89.7083386,151.101562 90.7317659,151.330727 91.7265625,151.789062 L91.0078125,153.507812 C90.5703103,153.320312 90.1614602,153.166667 89.78125,153.046875 C89.4010398,152.927083 89.0130228,152.867188 88.6171875,152.867188 C87.914059,152.867188 87.5625,153.05729 87.5625,153.4375 C87.5625,153.651043 87.6757801,153.835937 87.9023438,153.992188 C88.1289074,154.148438 88.6249962,154.380207 89.390625,154.6875 C90.0729201,154.963543 90.5729151,155.221353 90.890625,155.460938 C91.2083349,155.700522 91.4427076,155.976561 91.59375,156.289062 C91.7447924,156.601564 91.8203125,156.973956 91.8203125,157.40625 Z M97.359375,158.257812 C97.7760437,158.257812 98.2760387,158.166668 98.859375,157.984375 L98.859375,159.757812 C98.265622,160.023439 97.5364627,160.15625 96.671875,160.15625 C95.7187452,160.15625 95.0247418,159.915367 94.5898438,159.433594 C94.1549457,158.951821 93.9375,158.229171 93.9375,157.265625 L93.9375,153.054688 L92.796875,153.054688 L92.796875,152.046875 L94.109375,151.25 L94.796875,149.40625 L96.3203125,149.40625 L96.3203125,151.265625 L98.765625,151.265625 L98.765625,153.054688 L96.3203125,153.054688 L96.3203125,157.265625 C96.3203125,157.604168 96.4153636,157.854166 96.6054688,158.015625 C96.7955739,158.177084 97.0468734,158.257812 97.359375,158.257812 Z M105.5,151.101562 C105.822918,151.101562 106.091145,151.125 106.304688,151.171875 L106.125,153.40625 C105.932291,153.354166 105.697918,153.328125 105.421875,153.328125 C104.661455,153.328125 104.069013,153.523436 103.644531,153.914062 C103.22005,154.304689 103.007812,154.851559 103.007812,155.554688 L103.007812,160 L100.625,160 L100.625,151.265625 L102.429688,151.265625 L102.78125,152.734375 L102.898438,152.734375 C103.169272,152.244789 103.535154,151.850262 103.996094,151.550781 C104.457034,151.251301 104.958331,151.101562 105.5,151.101562 Z M107.789062,149.007812 C107.789062,148.231767 108.22135,147.84375 109.085938,147.84375 C109.950525,147.84375 110.382812,148.231767 110.382812,149.007812 C110.382812,149.377606 110.274741,149.665364 110.058594,149.871094 C109.842447,150.076824 109.518231,150.179688 109.085938,150.179688 C108.22135,150.179688 107.789062,149.789066 107.789062,149.007812 Z M110.273438,160 L107.890625,160 L107.890625,151.265625 L110.273438,151.265625 L110.273438,160 Z M120.835938,160 L118.453125,160 L118.453125,154.898438 C118.453125,154.268226 118.341147,153.795574 118.117188,153.480469 C117.893228,153.165363 117.536461,153.007812 117.046875,153.007812 C116.380205,153.007812 115.898439,153.230467 115.601562,153.675781 C115.304686,154.121096 115.15625,154.85937 115.15625,155.890625 L115.15625,160 L112.773438,160 L112.773438,151.265625 L114.59375,151.265625 L114.914062,152.382812 L115.046875,152.382812 C115.312501,151.960935 115.678383,151.641928 116.144531,151.425781 C116.610679,151.209634 117.140622,151.101562 117.734375,151.101562 C118.750005,151.101562 119.520831,151.376299 120.046875,151.925781 C120.572919,152.475263 120.835938,153.268224 120.835938,154.304688 L120.835938,160 Z M130.890625,151.265625 L130.890625,152.476562 L129.523438,152.828125 C129.773439,153.218752 129.898438,153.656248 129.898438,154.140625 C129.898438,155.07813 129.571618,155.808591 128.917969,156.332031 C128.26432,156.855471 127.356777,157.117188 126.195312,157.117188 L125.765625,157.09375 L125.414062,157.054688 C125.16927,157.242188 125.046875,157.45052 125.046875,157.679688 C125.046875,158.023439 125.484371,158.195312 126.359375,158.195312 L127.84375,158.195312 C128.802088,158.195312 129.53255,158.40104 130.035156,158.8125 C130.537763,159.22396 130.789062,159.828121 130.789062,160.625 C130.789062,161.645838 130.363286,162.437497 129.511719,163 C128.660152,163.562503 127.437508,163.84375 125.84375,163.84375 C124.624994,163.84375 123.694014,163.631513 123.050781,163.207031 C122.407549,162.78255 122.085938,162.187504 122.085938,161.421875 C122.085938,160.895831 122.249998,160.455731 122.578125,160.101562 C122.906252,159.747394 123.388018,159.494792 124.023438,159.34375 C123.778645,159.239583 123.565105,159.069012 123.382812,158.832031 C123.20052,158.595051 123.109375,158.343751 123.109375,158.078125 C123.109375,157.74479 123.205728,157.467449 123.398438,157.246094 C123.591147,157.024738 123.86979,156.807293 124.234375,156.59375 C123.776039,156.395832 123.412762,156.078127 123.144531,155.640625 C122.876301,155.203123 122.742188,154.687503 122.742188,154.09375 C122.742188,153.14062 123.05208,152.403648 123.671875,151.882812 C124.29167,151.361977 125.177078,151.101562 126.328125,151.101562 C126.572918,151.101562 126.86328,151.123698 127.199219,151.167969 C127.535158,151.21224 127.75,151.244792 127.84375,151.265625 L130.890625,151.265625 Z M124.148438,161.234375 C124.148438,161.562502 124.305988,161.820312 124.621094,162.007812 C124.936199,162.195313 125.377601,162.289062 125.945312,162.289062 C126.799483,162.289062 127.468748,162.171876 127.953125,161.9375 C128.437502,161.703124 128.679688,161.382815 128.679688,160.976562 C128.679688,160.648436 128.53646,160.421876 128.25,160.296875 C127.96354,160.171874 127.520836,160.109375 126.921875,160.109375 L125.6875,160.109375 C125.249998,160.109375 124.884116,160.212239 124.589844,160.417969 C124.295571,160.623699 124.148438,160.895832 124.148438,161.234375 Z M125.015625,154.125 C125.015625,154.598961 125.123697,154.973957 125.339844,155.25 C125.555991,155.526043 125.885414,155.664062 126.328125,155.664062 C126.776044,155.664062 127.104166,155.526043 127.3125,155.25 C127.520834,154.973957 127.625,154.598961 127.625,154.125 C127.625,153.072911 127.192713,152.546875 126.328125,152.546875 C125.453121,152.546875 125.015625,153.072911 125.015625,154.125 Z M144.304688,160 L141.921875,160 L141.921875,154.898438 C141.921875,154.268226 141.816407,153.795574 141.605469,153.480469 C141.39453,153.165363 141.062502,153.007812 140.609375,153.007812 C139.999997,153.007812 139.557293,153.231769 139.28125,153.679688 C139.005207,154.127606 138.867188,154.864578 138.867188,155.890625 L138.867188,160 L136.484375,160 L136.484375,151.265625 L138.304688,151.265625 L138.625,152.382812 L138.757812,152.382812 C138.992189,151.981769 139.330727,151.66797 139.773438,151.441406 C140.216148,151.214843 140.723955,151.101562 141.296875,151.101562 C142.604173,151.101562 143.489581,151.528642 143.953125,152.382812 L144.164062,152.382812 C144.398439,151.97656 144.743487,151.661459 145.199219,151.4375 C145.65495,151.213541 146.169268,151.101562 146.742188,151.101562 C147.731776,151.101562 148.480466,151.355466 148.988281,151.863281 C149.496096,152.371096 149.75,153.18489 149.75,154.304688 L149.75,160 L147.359375,160 L147.359375,154.898438 C147.359375,154.268226 147.253907,153.795574 147.042969,153.480469 C146.83203,153.165363 146.500002,153.007812 146.046875,153.007812 C145.463539,153.007812 145.027345,153.216144 144.738281,153.632812 C144.449217,154.049481 144.304688,154.710933 144.304688,155.617188 L144.304688,160 Z M150.945312,151.265625 L153.554688,151.265625 L155.203125,156.179688 C155.343751,156.606773 155.440104,157.111976 155.492188,157.695312 L155.539062,157.695312 C155.596354,157.158851 155.708332,156.653648 155.875,156.179688 L157.492188,151.265625 L160.046875,151.265625 L156.351562,161.117188 C156.013019,162.02865 155.529951,162.710935 154.902344,163.164062 C154.274736,163.61719 153.541671,163.84375 152.703125,163.84375 C152.291665,163.84375 151.888023,163.79948 151.492188,163.710938 L151.492188,161.820312 C151.778647,161.888021 152.091144,161.921875 152.429688,161.921875 C152.851565,161.921875 153.220051,161.79297 153.535156,161.535156 C153.850262,161.277342 154.096353,160.888023 154.273438,160.367188 L154.414062,159.9375 L150.945312,151.265625 Z M171.617188,160 L168.539062,160 L163.570312,151.359375 L163.5,151.359375 C163.598959,152.885424 163.648438,153.973955 163.648438,154.625 L163.648438,160 L161.484375,160 L161.484375,148.578125 L164.539062,148.578125 L169.5,157.132812 L169.554688,157.132812 C169.476562,155.64843 169.4375,154.598961 169.4375,153.984375 L169.4375,148.578125 L171.617188,148.578125 L171.617188,160 Z M179.851562,160 L179.390625,158.8125 L179.328125,158.8125 C178.927081,159.317711 178.514325,159.667968 178.089844,159.863281 C177.665362,160.058595 177.111983,160.15625 176.429688,160.15625 C175.591142,160.15625 174.930992,159.916669 174.449219,159.4375 C173.967446,158.958331 173.726562,158.276046 173.726562,157.390625 C173.726562,156.463537 174.050778,155.77995 174.699219,155.339844 C175.347659,154.899737 176.325514,154.65625 177.632812,154.609375 L179.148438,154.5625 L179.148438,154.179688 C179.148438,153.294266 178.695317,152.851562 177.789062,152.851562 C177.091142,152.851562 176.270838,153.062498 175.328125,153.484375 L174.539062,151.875 C175.544276,151.348956 176.658848,151.085938 177.882812,151.085938 C179.054693,151.085938 179.953122,151.341143 180.578125,151.851562 C181.203128,152.361982 181.515625,153.138016 181.515625,154.179688 L181.515625,160 L179.851562,160 Z M179.148438,155.953125 L178.226562,155.984375 C177.533851,156.005208 177.018231,156.130207 176.679688,156.359375 C176.341144,156.588543 176.171875,156.937498 176.171875,157.40625 C176.171875,158.078128 176.557288,158.414062 177.328125,158.414062 C177.880211,158.414062 178.321613,158.25521 178.652344,157.9375 C178.983075,157.61979 179.148438,157.197919 179.148438,156.671875 L179.148438,155.953125 Z M191.789062,160 L189.40625,160 L189.40625,154.898438 C189.40625,154.268226 189.300782,153.795574 189.089844,153.480469 C188.878905,153.165363 188.546877,153.007812 188.09375,153.007812 C187.484372,153.007812 187.041668,153.231769 186.765625,153.679688 C186.489582,154.127606 186.351562,154.864578 186.351562,155.890625 L186.351562,160 L183.96875,160 L183.96875,151.265625 L185.789062,151.265625 L186.109375,152.382812 L186.242188,152.382812 C186.476564,151.981769 186.815102,151.66797 187.257812,151.441406 C187.700523,151.214843 188.20833,151.101562 188.78125,151.101562 C190.088548,151.101562 190.973956,151.528642 191.4375,152.382812 L191.648438,152.382812 C191.882814,151.97656 192.227862,151.661459 192.683594,151.4375 C193.139325,151.213541 193.653643,151.101562 194.226562,151.101562 C195.216151,151.101562 195.964841,151.355466 196.472656,151.863281 C196.980471,152.371096 197.234375,153.18489 197.234375,154.304688 L197.234375,160 L194.84375,160 L194.84375,154.898438 C194.84375,154.268226 194.738282,153.795574 194.527344,153.480469 C194.316405,153.165363 193.984377,153.007812 193.53125,153.007812 C192.947914,153.007812 192.51172,153.216144 192.222656,153.632812 C191.933592,154.049481 191.789062,154.710933 191.789062,155.617188 L191.789062,160 Z M203.296875,152.796875 C202.791664,152.796875 202.395835,152.95703 202.109375,153.277344 C201.822915,153.597658 201.658854,154.05208 201.617188,154.640625 L204.960938,154.640625 C204.950521,154.05208 204.796876,153.597658 204.5,153.277344 C204.203124,152.95703 203.802086,152.796875 203.296875,152.796875 Z M203.632812,160.15625 C202.226555,160.15625 201.127608,159.768233 200.335938,158.992188 C199.544267,158.216142 199.148438,157.117195 199.148438,155.695312 C199.148438,154.231764 199.514319,153.100264 200.246094,152.300781 C200.977868,151.501298 201.989577,151.101562 203.28125,151.101562 C204.515631,151.101562 205.476559,151.453121 206.164062,152.15625 C206.851566,152.859379 207.195312,153.830723 207.195312,155.070312 L207.195312,156.226562 L201.5625,156.226562 C201.588542,156.903649 201.789061,157.43229 202.164062,157.8125 C202.539064,158.19271 203.065101,158.382812 203.742188,158.382812 C204.268232,158.382812 204.765623,158.328126 205.234375,158.21875 C205.703127,158.109374 206.192706,157.934897 206.703125,157.695312 L206.703125,159.539062 C206.286456,159.747397 205.841148,159.902343 205.367188,160.003906 C204.893227,160.105469 204.315108,160.15625 203.632812,160.15625 Z M211.351562,158.140625 L211.46875,158.320312 C211.197915,159.372401 210.739587,160.619784 210.09375,162.0625 L208.375,162.0625 C208.713543,160.677076 208.976562,159.369798 209.164062,158.140625 L211.351562,158.140625 Z M208.796875,152.429688 C208.796875,151.992185 208.914061,151.661459 209.148438,151.4375 C209.382814,151.213541 209.723956,151.101562 210.171875,151.101562 C210.604169,151.101562 210.938801,151.216145 211.175781,151.445312 C211.412762,151.67448 211.53125,152.002602 211.53125,152.429688 C211.53125,152.851565 211.410157,153.178384 211.167969,153.410156 C210.92578,153.641928 210.593752,153.757812 210.171875,153.757812 C209.734373,153.757812 209.395835,153.64323 209.15625,153.414062 C208.916665,153.184895 208.796875,152.856773 208.796875,152.429688 Z" id="string-myName;"></path>
            </g>
        </g>
    </g>
</svg>