<?xml version="1.0" encoding="UTF-8"?>
<svg width="18px" height="18px" viewBox="0 0 18 18" version="1.1" xmlns="http://www.w3.org/2000/svg" xmlns:xlink="http://www.w3.org/1999/xlink">
    <!-- Generator: Sketch 47.1 (45422) - http://www.bohemiancoding.com/sketch -->
    <title>search - material</title>
    <desc>Created with Sketch.</desc>
    <defs></defs>
    <g id="Page-1" stroke="none" stroke-width="1" fill="none" fill-rule="evenodd">
        <g id="home" transform="translate(-16.000000, -42.000000)" fill="#FAFAFA">
            <path d="M22.7160494,53.3333333 C23.5555598,53.3333333 24.3292146,53.1234589 25.037037,52.7037037 C25.7448595,52.2839485 26.3045247,51.7201681 26.7160494,51.0123457 C27.1275741,50.3045232 27.3333333,49.5308684 27.3333333,48.691358 C27.3333333,47.8518477 27.1275741,47.0781928 26.7160494,46.3703704 C26.3045247,45.6625479 25.7448595,45.1028827 25.037037,44.691358 C24.3292146,44.2798333 23.5555598,44.0740741 22.7160494,44.0740741 C21.876539,44.0740741 21.1028842,44.2798333 20.3950617,44.691358 C19.6872393,45.1028827 19.1234589,45.6625479 18.7037037,46.3703704 C18.2839485,47.0781928 18.0740741,47.8518477 18.0740741,48.691358 C18.0740741,49.5308684 18.2839485,50.3045232 18.7037037,51.0123457 C19.1234589,51.7201681 19.6872393,52.2839485 20.3950617,52.7037037 C21.1028842,53.1234589 21.876539,53.3333333 22.7160494,53.3333333 Z M28.8888889,53.3333333 L34,58.4444444 L32.4444444,60 L27.3333333,54.8641975 L27.3333333,54.0493827 L27.037037,53.7777778 C26.4609025,54.2880684 25.7983577,54.679011 25.0493827,54.9506173 C24.3004078,55.2222236 23.5226378,55.3580247 22.7160494,55.3580247 C21.4979363,55.3580247 20.3744907,55.0617314 19.345679,54.4691358 C18.3168673,53.8765402 17.5061758,53.0781943 16.9135802,52.0740741 C16.3045237,51.0370319 16,49.9094711 16,48.691358 C16,47.4732449 16.3004085,46.3497994 16.9012346,45.3209877 C17.5020606,44.2921759 18.3168673,43.4814844 19.345679,42.8888889 C20.3744907,42.2962933 21.4979363,42 22.7160494,42 C23.9341625,42 25.0617232,42.3045237 26.0987654,42.9135802 C27.1028857,43.5061758 27.8971164,44.3127521 28.4814815,45.3333333 C29.0658465,46.3539146 29.3580247,47.4732449 29.3580247,48.691358 C29.3580247,49.5144074 29.2222236,50.3004078 28.9506173,51.0493827 C28.679011,51.7983577 28.2880684,52.4609025 27.7777778,53.037037 L28.0493827,53.3333333 L28.8888889,53.3333333 Z" id="search---material"></path>
        </g>
    </g>
</svg>