<?xml version="1.0" encoding="UTF-8"?>
<svg width="76px" height="71px" viewBox="0 0 76 71" version="1.1" xmlns="http://www.w3.org/2000/svg" xmlns:xlink="http://www.w3.org/1999/xlink">
    <!-- Generator: Sketch 47.1 (45422) - http://www.bohemiancoding.com/sketch -->
    <title>Group 3</title>
    <desc>Created with Sketch.</desc>
    <defs></defs>
    <g id="Page-1" stroke="none" stroke-width="1" fill="none" fill-rule="evenodd">
        <g id="home-3" transform="translate(-135.000000, -220.000000)">
            <g id="Group-2" transform="translate(32.000000, 125.000000)">
                <g id="Group-3" transform="translate(103.000000, 95.000000)">
                    <g id="soup" fill-rule="nonzero">
                        <g id="Group" transform="translate(4.421818, 6.942779)" fill="#28C1F9">
                            <path d="M3.93541818,1.93351499 C4.29413818,9.83542234 6.73387636,16.8092643 10.88928,22.0010899 C13.4163491,24.0678474 16.3201018,25.6392371 19.5864436,27.0016349 L47.5619055,27.0016349 C58.20688,22.6419619 65.1389091,14.1950954 66.8852509,1.93351499 L3.93541818,1.93351499 Z M19.2940509,20.8321526 C18.9013382,21.4588556 18.2214836,21.8038147 17.5250473,21.8038147 C17.1522327,21.8038147 16.7752727,21.7049046 16.4347927,21.4975477 C10.6084945,17.946049 6.59431273,12.2623978 4.82586182,5.06076294 C4.55585455,3.96103542 5.24123636,2.85422343 6.35608727,2.58828338 C7.47176727,2.32207084 8.59435636,2.99782016 8.86436364,4.09700272 C10.3699927,10.2286104 13.7432873,15.0408719 18.6197236,18.0128065 C19.5952873,18.6079019 19.8973527,19.8700272 19.2940509,20.8321526 Z" id="Shape"></path>
                        </g>
                        <rect id="Rectangle-path" fill="#28C1F9" x="30.1333091" y="37.2141689" width="19.8981818" height="2.9972752"></rect>
                        <path d="M23.0412655,24.9555858 C18.1648291,21.9833787 14.7915345,17.1713896 13.2859055,11.039782 C13.0158982,9.94059946 11.8933091,9.26485014 10.7779055,9.53106267 C9.66305455,9.7972752 8.97767273,10.9040872 9.24768,12.0035422 C11.0158545,19.2051771 15.0303127,24.8888283 20.8566109,28.440327 C21.1970909,28.6474114 21.5743273,28.746594 21.9471418,28.746594 C22.6433018,28.746594 23.3234327,28.4019074 23.7161455,27.7749319 C24.3191709,26.8128065 24.0171055,25.5506812 23.0412655,24.9555858 Z" id="Shape" fill="#3F2D20"></path>
                        <path d="M73.83552,0.591008174 L2.15618909,0.591008174 C1.00872727,0.591008174 0.0787636364,1.50790191 0.0787636364,2.63923706 C0.0787636364,10.713624 2.07770182,18.1555858 5.85973818,24.1607629 C9.61717818,30.127248 15.0900073,34.5694823 21.7406982,37.0741144 L21.7406982,41.9438692 C21.7406982,43.0752044 22.6709382,43.9920981 23.8181236,43.9920981 L52.1738618,43.9920981 C53.3210473,43.9920981 54.2512873,43.0752044 54.2512873,41.9438692 L54.2512873,37.0735695 C60.9019782,34.5692098 66.3742545,30.127248 70.1319709,24.1604905 C73.9142836,18.1553134 75.9132218,10.7133515 75.9132218,2.63896458 C75.9129455,1.50790191 74.9827055,0.591008174 73.83552,0.591008174 Z M25.8955491,39.8953678 L25.8955491,37.6283379 L50.09616,37.6283379 L50.09616,39.8953678 L25.8955491,39.8953678 Z M24.0079855,33.5318801 C12.1845964,29.453406 4.91954909,18.7749319 4.27976727,4.68746594 L71.7119418,4.68746594 C71.07216,18.7749319 63.8071127,29.453406 51.9837236,33.5318801 L24.0079855,33.5318801 Z" id="Shape" fill="#3F2D20"></path>
                    </g>
                    <text id="myBowl" font-family="OpenSans-Bold, Open Sans" font-size="14" font-weight="bold" fill="#3F2D20">
                        <tspan x="10" y="67">myBowl</tspan>
                    </text>
                </g>
            </g>
        </g>
    </g>
</svg>