<?xml version="1.0" encoding="UTF-8"?>
<svg width="121px" height="17px" viewBox="0 0 121 17" version="1.1" xmlns="http://www.w3.org/2000/svg" xmlns:xlink="http://www.w3.org/1999/xlink">
    <!-- Generator: Sketch 47.1 (45422) - http://www.bohemiancoding.com/sketch -->
    <title>int myNumber;</title>
    <desc>Created with Sketch.</desc>
    <defs></defs>
    <g id="Page-1" stroke="none" stroke-width="1" fill="none" fill-rule="evenodd">
        <g id="home-3-copy" transform="translate(-120.000000, -248.000000)" fill="#3F2D20">
            <g id="Group-2" transform="translate(32.000000, 125.000000)">
                <path d="M88.6328125,125.007812 C88.6328125,124.231767 89.0650998,123.84375 89.9296875,123.84375 C90.7942752,123.84375 91.2265625,124.231767 91.2265625,125.007812 C91.2265625,125.377606 91.1184907,125.665364 90.9023438,125.871094 C90.6861968,126.076824 90.3619813,126.179688 89.9296875,126.179688 C89.0650998,126.179688 88.6328125,125.789066 88.6328125,125.007812 Z M91.1171875,136 L88.734375,136 L88.734375,127.265625 L91.1171875,127.265625 L91.1171875,136 Z M101.679688,136 L99.296875,136 L99.296875,130.898438 C99.296875,130.268226 99.184897,129.795574 98.9609375,129.480469 C98.736978,129.165363 98.3802108,129.007812 97.890625,129.007812 C97.223955,129.007812 96.742189,129.230467 96.4453125,129.675781 C96.148436,130.121096 96,130.85937 96,131.890625 L96,136 L93.6171875,136 L93.6171875,127.265625 L95.4375,127.265625 L95.7578125,128.382812 L95.890625,128.382812 C96.1562513,127.960935 96.5221331,127.641928 96.9882812,127.425781 C97.4544294,127.209634 97.984372,127.101562 98.578125,127.101562 C99.5937551,127.101562 100.364581,127.376299 100.890625,127.925781 C101.416669,128.475263 101.679688,129.268224 101.679688,130.304688 L101.679688,136 Z M107.8125,134.257812 C108.229169,134.257812 108.729164,134.166668 109.3125,133.984375 L109.3125,135.757812 C108.718747,136.023439 107.989588,136.15625 107.125,136.15625 C106.17187,136.15625 105.477867,135.915367 105.042969,135.433594 C104.608071,134.951821 104.390625,134.229171 104.390625,133.265625 L104.390625,129.054688 L103.25,129.054688 L103.25,128.046875 L104.5625,127.25 L105.25,125.40625 L106.773438,125.40625 L106.773438,127.265625 L109.21875,127.265625 L109.21875,129.054688 L106.773438,129.054688 L106.773438,133.265625 C106.773438,133.604168 106.868489,133.854166 107.058594,134.015625 C107.248699,134.177084 107.499998,134.257812 107.8125,134.257812 Z M123.054688,136 L120.671875,136 L120.671875,130.898438 C120.671875,130.268226 120.566407,129.795574 120.355469,129.480469 C120.14453,129.165363 119.812502,129.007812 119.359375,129.007812 C118.749997,129.007812 118.307293,129.231769 118.03125,129.679688 C117.755207,130.127606 117.617188,130.864578 117.617188,131.890625 L117.617188,136 L115.234375,136 L115.234375,127.265625 L117.054688,127.265625 L117.375,128.382812 L117.507812,128.382812 C117.742189,127.981769 118.080727,127.66797 118.523438,127.441406 C118.966148,127.214843 119.473955,127.101562 120.046875,127.101562 C121.354173,127.101562 122.239581,127.528642 122.703125,128.382812 L122.914062,128.382812 C123.148439,127.97656 123.493487,127.661459 123.949219,127.4375 C124.40495,127.213541 124.919268,127.101562 125.492188,127.101562 C126.481776,127.101562 127.230466,127.355466 127.738281,127.863281 C128.246096,128.371096 128.5,129.18489 128.5,130.304688 L128.5,136 L126.109375,136 L126.109375,130.898438 C126.109375,130.268226 126.003907,129.795574 125.792969,129.480469 C125.58203,129.165363 125.250002,129.007812 124.796875,129.007812 C124.213539,129.007812 123.777345,129.216144 123.488281,129.632812 C123.199217,130.049481 123.054688,130.710933 123.054688,131.617188 L123.054688,136 Z M129.695312,127.265625 L132.304688,127.265625 L133.953125,132.179688 C134.093751,132.606773 134.190104,133.111976 134.242188,133.695312 L134.289062,133.695312 C134.346354,133.158851 134.458332,132.653648 134.625,132.179688 L136.242188,127.265625 L138.796875,127.265625 L135.101562,137.117188 C134.763019,138.02865 134.279951,138.710935 133.652344,139.164062 C133.024736,139.61719 132.291671,139.84375 131.453125,139.84375 C131.041665,139.84375 130.638023,139.79948 130.242188,139.710938 L130.242188,137.820312 C130.528647,137.888021 130.841144,137.921875 131.179688,137.921875 C131.601565,137.921875 131.970051,137.79297 132.285156,137.535156 C132.600262,137.277342 132.846353,136.888023 133.023438,136.367188 L133.164062,135.9375 L129.695312,127.265625 Z M150.367188,136 L147.289062,136 L142.320312,127.359375 L142.25,127.359375 C142.348959,128.885424 142.398438,129.973955 142.398438,130.625 L142.398438,136 L140.234375,136 L140.234375,124.578125 L143.289062,124.578125 L148.25,133.132812 L148.304688,133.132812 C148.226562,131.64843 148.1875,130.598961 148.1875,129.984375 L148.1875,124.578125 L150.367188,124.578125 L150.367188,136 Z M159.242188,136 L158.921875,134.882812 L158.796875,134.882812 C158.541665,135.289065 158.17969,135.602863 157.710938,135.824219 C157.242185,136.045574 156.708336,136.15625 156.109375,136.15625 C155.083328,136.15625 154.309898,135.881513 153.789062,135.332031 C153.268227,134.782549 153.007812,133.992193 153.007812,132.960938 L153.007812,127.265625 L155.390625,127.265625 L155.390625,132.367188 C155.390625,132.997399 155.502603,133.470051 155.726562,133.785156 C155.950522,134.100262 156.307289,134.257812 156.796875,134.257812 C157.463545,134.257812 157.945311,134.035158 158.242188,133.589844 C158.539064,133.144529 158.6875,132.406255 158.6875,131.375 L158.6875,127.265625 L161.070312,127.265625 L161.070312,136 L159.242188,136 Z M171.390625,136 L169.007812,136 L169.007812,130.898438 C169.007812,130.268226 168.902345,129.795574 168.691406,129.480469 C168.480468,129.165363 168.14844,129.007812 167.695312,129.007812 C167.085934,129.007812 166.643231,129.231769 166.367188,129.679688 C166.091144,130.127606 165.953125,130.864578 165.953125,131.890625 L165.953125,136 L163.570312,136 L163.570312,127.265625 L165.390625,127.265625 L165.710938,128.382812 L165.84375,128.382812 C166.078126,127.981769 166.416664,127.66797 166.859375,127.441406 C167.302086,127.214843 167.809893,127.101562 168.382812,127.101562 C169.690111,127.101562 170.575519,127.528642 171.039062,128.382812 L171.25,128.382812 C171.484376,127.97656 171.829425,127.661459 172.285156,127.4375 C172.740888,127.213541 173.255205,127.101562 173.828125,127.101562 C174.817713,127.101562 175.566404,127.355466 176.074219,127.863281 C176.582034,128.371096 176.835938,129.18489 176.835938,130.304688 L176.835938,136 L174.445312,136 L174.445312,130.898438 C174.445312,130.268226 174.339845,129.795574 174.128906,129.480469 C173.917968,129.165363 173.58594,129.007812 173.132812,129.007812 C172.549476,129.007812 172.113283,129.216144 171.824219,129.632812 C171.535155,130.049481 171.390625,130.710933 171.390625,131.617188 L171.390625,136 Z M184.140625,127.101562 C185.17188,127.101562 185.979164,127.503902 186.5625,128.308594 C187.145836,129.113285 187.4375,130.216139 187.4375,131.617188 C187.4375,133.059903 187.136722,134.177079 186.535156,134.96875 C185.933591,135.760421 185.114589,136.15625 184.078125,136.15625 C183.052078,136.15625 182.247399,135.783858 181.664062,135.039062 L181.5,135.039062 L181.101562,136 L179.28125,136 L179.28125,123.84375 L181.664062,123.84375 L181.664062,126.671875 C181.664062,127.031252 181.632813,127.606767 181.570312,128.398438 L181.664062,128.398438 C182.221357,127.53385 183.04687,127.101562 184.140625,127.101562 Z M183.375,129.007812 C182.786455,129.007812 182.356772,129.1888 182.085938,129.550781 C181.815103,129.912762 181.674479,130.510413 181.664062,131.34375 L181.664062,131.601562 C181.664062,132.539067 181.803384,133.210935 182.082031,133.617188 C182.360678,134.02344 182.80208,134.226562 183.40625,134.226562 C183.895836,134.226562 184.285155,134.001304 184.574219,133.550781 C184.863283,133.100258 185.007812,132.445317 185.007812,131.585938 C185.007812,130.726558 184.861981,130.082033 184.570312,129.652344 C184.278644,129.222654 183.880211,129.007812 183.375,129.007812 Z M193.023438,128.796875 C192.518227,128.796875 192.122397,128.95703 191.835938,129.277344 C191.549478,129.597658 191.385417,130.05208 191.34375,130.640625 L194.6875,130.640625 C194.677083,130.05208 194.523439,129.597658 194.226562,129.277344 C193.929686,128.95703 193.528648,128.796875 193.023438,128.796875 Z M193.359375,136.15625 C191.953118,136.15625 190.854171,135.768233 190.0625,134.992188 C189.270829,134.216142 188.875,133.117195 188.875,131.695312 C188.875,130.231764 189.240882,129.100264 189.972656,128.300781 C190.704431,127.501298 191.716139,127.101562 193.007812,127.101562 C194.242194,127.101562 195.203122,127.453121 195.890625,128.15625 C196.578128,128.859379 196.921875,129.830723 196.921875,131.070312 L196.921875,132.226562 L191.289062,132.226562 C191.315104,132.903649 191.515623,133.43229 191.890625,133.8125 C192.265627,134.19271 192.791663,134.382812 193.46875,134.382812 C193.994794,134.382812 194.492185,134.328126 194.960938,134.21875 C195.42969,134.109374 195.919268,133.934897 196.429688,133.695312 L196.429688,135.539062 C196.013019,135.747397 195.567711,135.902343 195.09375,136.003906 C194.619789,136.105469 194.04167,136.15625 193.359375,136.15625 Z M203.734375,127.101562 C204.057293,127.101562 204.32552,127.125 204.539062,127.171875 L204.359375,129.40625 C204.166666,129.354166 203.932293,129.328125 203.65625,129.328125 C202.89583,129.328125 202.303388,129.523436 201.878906,129.914062 C201.454425,130.304689 201.242188,130.851559 201.242188,131.554688 L201.242188,136 L198.859375,136 L198.859375,127.265625 L200.664062,127.265625 L201.015625,128.734375 L201.132812,128.734375 C201.403647,128.244789 201.769529,127.850262 202.230469,127.550781 C202.691409,127.251301 203.192706,127.101562 203.734375,127.101562 Z M208.34375,134.140625 L208.460938,134.320312 C208.190103,135.372401 207.731774,136.619784 207.085938,138.0625 L205.367188,138.0625 C205.705731,136.677076 205.968749,135.369798 206.15625,134.140625 L208.34375,134.140625 Z M205.789062,128.429688 C205.789062,127.992185 205.906249,127.661459 206.140625,127.4375 C206.375001,127.213541 206.716144,127.101562 207.164062,127.101562 C207.596356,127.101562 207.930988,127.216145 208.167969,127.445312 C208.404949,127.67448 208.523438,128.002602 208.523438,128.429688 C208.523438,128.851565 208.402345,129.178384 208.160156,129.410156 C207.917968,129.641928 207.58594,129.757812 207.164062,129.757812 C206.72656,129.757812 206.388022,129.64323 206.148438,129.414062 C205.908853,129.184895 205.789062,128.856773 205.789062,128.429688 Z" id="int-myNumber;"></path>
            </g>
        </g>
    </g>
</svg>