<?xml version="1.0" encoding="UTF-8"?>
<svg width="94px" height="94px" viewBox="0 0 94 94" version="1.1" xmlns="http://www.w3.org/2000/svg" xmlns:xlink="http://www.w3.org/1999/xlink">
    <!-- Generator: Sketch 47.1 (45422) - http://www.bohemiancoding.com/sketch -->
    <title>grocery</title>
    <desc>Created with Sketch.</desc>
    <defs></defs>
    <g id="Page-1" stroke="none" stroke-width="1" fill="none" fill-rule="evenodd">
        <g id="home-3-copy" transform="translate(-133.000000, -205.000000)" fill-rule="nonzero">
            <g id="grocery" transform="translate(133.000000, 205.000000)">
                <path d="M6,33.985 C3.4005,33.6665 1.2615,23.5986333 0.414,21 L0,21 L0,70 L6,70 L6,33.985 Z" id="Shape" fill="#556080"></path>
                <path d="M93.586,24 C92.737,26.6137857 90.5995,33.4546429 88,33.775 L88,70 L94,70 L94,24 L93.586,24 Z" id="Shape" fill="#556080"></path>
                <path d="M16.1538462,18 L16.1538462,18 L21,9.81818182 L21,0 L11.1396923,0 C9.44838462,0 8.07692308,1.38927273 8.07692308,3.10254545 L8.07692308,9.81818182 L0,18 L0,18 L16.1538462,18 Z" id="Shape" fill="#28C1F9"></path>
                <polygon id="Shape" fill="#FFD21A" points="32.3636364 18 32.3636364 18 34 9.81818182 34 0 20.9090909 0 20.9090909 9.81818182 16 18 16 18"></polygon>
                <polygon id="Shape" fill="#28C1F9" points="47 18 47 18 47 9.81818182 47 0 33.6666667 0 33.6666667 9.81818182 32 18 32 18"></polygon>
                <path d="M8.8,34 L7.2,34 C3.224,34 0,30.776 0,26.8 L0,18 L16,18 L16,26.8 C16,30.776 12.776,34 8.8,34 Z" id="Shape" fill="#2AB5E8"></path>
                <path d="M24.8,34 L23.2,34 C19.224,34 16,30.776 16,26.8 L16,18 L32,18 L32,26.8 C32,30.776 28.776,34 24.8,34 Z" id="Shape" fill="#F4C916"></path>
                <path d="M70.8,34 L69.2,34 C65.224,34 62,30.776 62,26.8 L62,18 L78,18 L78,26.8 C78,30.776 74.776,34 70.8,34 Z" id="Shape" fill="#2AB5E8"></path>
                <path d="M86.8,34 L85.2,34 C81.224,34 78,30.776 78,26.8 L78,18 L94,18 L94,26.8 C94,30.776 90.776,34 86.8,34 Z" id="Shape" fill="#F4C916"></path>
                <path d="M39.5,34 L39.5,34 C35.3583333,34 32,30.776 32,26.8 L32,18 L47,18 L47,26.8 C47,30.776 43.6416667,34 39.5,34 Z" id="Shape" fill="#2AB5E8"></path>
                <path d="M54.5,34 L54.5,34 C50.3583333,34 47,30.776 47,26.8 L47,18 L62,18 L62,26.8 C62,30.776 58.6416667,34 54.5,34 Z" id="Shape" fill="#F4C916"></path>
                <rect id="Rectangle-path" fill="#7F6E5D" x="0" y="70" width="94" height="19"></rect>
                <rect id="Rectangle-path" fill="#CBB292" x="6" y="70" width="3" height="19"></rect>
                <rect id="Rectangle-path" fill="#CBB292" x="13" y="70" width="3" height="19"></rect>
                <rect id="Rectangle-path" fill="#CBB292" x="19" y="70" width="3" height="19"></rect>
                <rect id="Rectangle-path" fill="#CBB292" x="26" y="70" width="3" height="19"></rect>
                <rect id="Rectangle-path" fill="#CBB292" x="32" y="70" width="3" height="19"></rect>
                <rect id="Rectangle-path" fill="#CBB292" x="39" y="70" width="3" height="19"></rect>
                <rect id="Rectangle-path" fill="#CBB292" x="45" y="70" width="3" height="19"></rect>
                <rect id="Rectangle-path" fill="#CBB292" x="52" y="70" width="3" height="19"></rect>
                <rect id="Rectangle-path" fill="#CBB292" x="58" y="70" width="3" height="19"></rect>
                <rect id="Rectangle-path" fill="#CBB292" x="65" y="70" width="3" height="19"></rect>
                <rect id="Rectangle-path" fill="#CBB292" x="71" y="70" width="3" height="19"></rect>
                <rect id="Rectangle-path" fill="#CBB292" x="78" y="70" width="3" height="19"></rect>
                <rect id="Rectangle-path" fill="#CBB292" x="84" y="70" width="3" height="19"></rect>
                <rect id="Rectangle-path" fill="#556080" x="0" y="89" width="6" height="5"></rect>
                <rect id="Rectangle-path" fill="#556080" x="88" y="89" width="6" height="5"></rect>
                <path d="M77.8461538,18 L77.8461538,18 L73,9.81818182 L73,0 L82.8603077,0 C84.5516154,0 85.9230769,1.38927273 85.9230769,3.10254545 L85.9230769,9.81818182 L94,18 L94,18 L77.8461538,18 Z" id="Shape" fill="#FFD21A"></path>
                <polygon id="Shape" fill="#28C1F9" points="61.6363636 18 61.6363636 18 60 9.81818182 60 0 73.0909091 0 73.0909091 9.81818182 78 18 78 18"></polygon>
                <polygon id="Shape" fill="#FFD21A" points="47 18 47 18 47 9.81818182 47 0 60.3333333 0 60.3333333 9.81818182 62 18 62 18"></polygon>
            </g>
        </g>
    </g>
</svg>